<svg width="22" height="24" viewBox="0 0 22 24" fill="none" xmlns="http://www.w3.org/2000/svg">
<path d="M17.1276 11.7869H18.8017C19.1802 11.7869 19.4881 11.479 19.4881 11.1005V9.42642C19.4881 9.04795 19.1802 8.74003 18.8017 8.74003H17.1276C16.7492 8.74003 16.4413 9.04795 16.4413 9.42642V11.1005C16.4413 11.479 16.7492 11.7869 17.1276 11.7869ZM17.1444 9.44316H18.785V11.0838H17.1444V9.44316ZM17.1276 16.24H18.8017C19.1802 16.24 19.4881 15.9321 19.4881 15.5536V13.8795C19.4881 13.5011 19.1802 13.1932 18.8017 13.1932H17.1276C16.7492 13.1932 16.4413 13.5011 16.4413 13.8795V15.5536C16.4413 15.9321 16.7492 16.24 17.1276 16.24ZM17.1444 13.8963H18.785V15.5369H17.1444V13.8963ZM12.3503 11.7869H14.0244C14.4029 11.7869 14.7108 11.479 14.7108 11.1005V9.42642C14.7108 9.04795 14.4029 8.74003 14.0244 8.74003H12.3503C11.9719 8.74003 11.6639 9.04795 11.6639 9.42642V11.1005C11.6639 11.479 11.9719 11.7869 12.3503 11.7869ZM12.3671 9.44316H14.0077V11.0838H12.3671V9.44316ZM4.46981 17.4375H2.79572C2.41725 17.4375 2.10933 17.7454 2.10933 18.1239V19.798C2.10933 20.1765 2.41725 20.4844 2.79572 20.4844H4.46981C4.84828 20.4844 5.1562 20.1765 5.1562 19.798V18.1239C5.1562 17.7454 4.84828 17.4375 4.46981 17.4375ZM4.45308 19.7812H2.81245V18.1406H4.45308V19.7812ZM4.46981 8.74003H2.79572C2.41725 8.74003 2.10933 9.04795 2.10933 9.42642V11.1005C2.10933 11.479 2.41725 11.7869 2.79572 11.7869H4.46981C4.84828 11.7869 5.1562 11.479 5.1562 11.1005V9.42642C5.1562 9.04791 4.84828 8.74003 4.46981 8.74003ZM4.45308 11.0838H2.81245V9.44316H4.45308V11.0838ZM12.3503 16.1356H14.0244C14.4029 16.1356 14.7108 15.8277 14.7108 15.4493V13.7752C14.7108 13.3967 14.4029 13.0888 14.0244 13.0888H12.3503C11.9719 13.0888 11.6639 13.3967 11.6639 13.7752V15.4493C11.6639 15.8277 11.9719 16.1356 12.3503 16.1356ZM12.3671 13.7919H14.0077V15.4325H12.3671V13.7919ZM19.8373 1.60659H18.3342V1.06908C18.3342 0.479578 17.8546 0 17.2651 0H17.1037C16.5142 0 16.0347 0.479578 16.0347 1.06908V1.60659H5.56279V1.06908C5.56279 0.479578 5.08322 0 4.49372 0H4.33228C3.74278 0 3.2632 0.479578 3.2632 1.06908V1.60659H1.76016C0.789609 1.60659 0 2.3962 0 3.36675V22.2422C0 23.2115 0.788531 24 1.75781 24H19.8397C20.809 24 21.5975 23.2115 21.5975 22.2422V3.36675C21.5975 2.3962 20.8079 1.60659 19.8373 1.60659ZM16.7378 1.06908C16.7378 0.867281 16.9019 0.703125 17.1037 0.703125H17.2652C17.467 0.703125 17.6311 0.867281 17.6311 1.06908V1.60659H16.7378V1.06908ZM3.96637 1.06908C3.96637 0.867281 4.13053 0.703125 4.33233 0.703125H4.49376C4.69556 0.703125 4.85972 0.867281 4.85972 1.06908V1.60659H3.96642V1.06908H3.96637ZM20.8944 22.2422C20.8944 22.8238 20.4213 23.2969 19.8397 23.2969H1.75776C1.17619 23.2969 0.703078 22.8238 0.703078 22.2422V22.24C0.99764 22.4619 1.36378 22.5938 1.76016 22.5938H16.014C16.4842 22.5938 16.9262 22.4107 17.2587 22.0782L20.8944 18.4425V22.2422ZM16.8999 21.4425C16.9275 21.3288 16.9425 21.2101 16.9425 21.088V18.7413C16.9425 18.2988 17.3025 17.9387 17.7451 17.9387H20.0918C20.2139 17.9387 20.3325 17.9237 20.4463 17.8962L16.8999 21.4425ZM20.8944 6.63066H5.91436C5.7202 6.63066 5.56279 6.78806 5.56279 6.98222C5.56279 7.17637 5.7202 7.33378 5.91436 7.33378H20.8944V16.4331C20.8944 16.8756 20.5343 17.2357 20.0918 17.2357H17.7451C16.9148 17.2357 16.2394 17.9111 16.2394 18.7413V21.0881C16.2394 21.5306 15.8793 21.8907 15.4368 21.8907H1.76016C1.17731 21.8907 0.703125 21.4165 0.703125 20.8336V7.33378H4.50811C4.70226 7.33378 4.85967 7.17637 4.85967 6.98222C4.85967 6.78806 4.70226 6.63066 4.50811 6.63066H0.703078V3.36675C0.703078 2.78391 1.17726 2.30972 1.76011 2.30972H3.2632V3.34341C3.2632 3.93291 3.74278 4.41248 4.33228 4.41248C4.52644 4.41248 4.68384 4.25508 4.68384 4.06092C4.68384 3.86677 4.52644 3.70936 4.33228 3.70936C4.13048 3.70936 3.96633 3.5452 3.96633 3.34341V2.30972H16.0347V3.34341C16.0347 3.93291 16.5142 4.41248 17.1037 4.41248C17.2979 4.41248 17.4553 4.25508 17.4553 4.06092C17.4553 3.86677 17.2979 3.70936 17.1037 3.70936C16.9019 3.70936 16.7378 3.5452 16.7378 3.34341V2.30972H19.8373C20.4202 2.30972 20.8944 2.78391 20.8944 3.36675V6.63066ZM4.46981 13.0888H2.79572C2.41725 13.0888 2.10933 13.3967 2.10933 13.7752V15.4493C2.10933 15.8277 2.41725 16.1356 2.79572 16.1356H4.46981C4.84828 16.1356 5.1562 15.8277 5.1562 15.4493V13.7752C5.1562 13.3966 4.84828 13.0888 4.46981 13.0888ZM4.45308 15.4325H2.81245V13.7919H4.45308V15.4325ZM7.57303 11.7869H9.24712C9.62559 11.7869 9.93351 11.479 9.93351 11.1005V9.42642C9.93351 9.04795 9.62559 8.74003 9.24712 8.74003H7.57303C7.19456 8.74003 6.88664 9.04795 6.88664 9.42642V11.1005C6.88664 11.479 7.19456 11.7869 7.57303 11.7869ZM7.58976 9.44316H9.23039V11.0838H7.58976V9.44316ZM12.3666 19.7812C12.3579 19.5948 12.204 19.4464 12.0155 19.4464C11.8213 19.4464 11.6639 19.6038 11.6639 19.798C11.6639 20.1765 11.9718 20.4844 12.3503 20.4844H14.0244C14.4029 20.4844 14.7108 20.1765 14.7108 19.798V18.1239C14.7108 17.7454 14.4029 17.4375 14.0244 17.4375H12.3503C11.9718 17.4375 11.6639 17.7454 11.6639 18.1239V18.6067C11.6639 18.8009 11.8213 18.9583 12.0155 18.9583C12.2096 18.9583 12.367 18.8009 12.367 18.6067V18.1406H14.0076V19.7812H12.3666ZM7.57303 16.1356H9.24712C9.62559 16.1356 9.93351 15.8277 9.93351 15.4493V13.7752C9.93351 13.3967 9.62559 13.0888 9.24712 13.0888H7.57303C7.19456 13.0888 6.88664 13.3967 6.88664 13.7752V15.4493C6.88664 15.8277 7.19456 16.1356 7.57303 16.1356ZM7.58976 13.7919H9.23039V15.4325H7.58976V13.7919ZM7.57303 20.4844H9.24712C9.62559 20.4844 9.93351 20.1765 9.93351 19.798V18.1239C9.93351 17.7454 9.62559 17.4375 9.24712 17.4375H7.57303C7.19456 17.4375 6.88664 17.7454 6.88664 18.1239V19.798C6.88664 20.1765 7.19456 20.4844 7.57303 20.4844ZM7.58976 18.1406H9.23039V19.7812H7.58976V18.1406Z" fill="#4C4C6D"/>
</svg>
