<svg width="20" height="25" viewBox="0 0 20 25" fill="none" xmlns="http://www.w3.org/2000/svg">
<path d="M0.899949 1.84281H7.05905V1.26136V1.25872C7.05905 1.23939 7.05942 1.22088 7.06164 1.20196C7.07549 0.878071 7.20236 0.584092 7.39702 0.370678L7.39573 0.369254C7.59961 0.14465 7.88273 0.00508614 8.19447 0.00183101L8.19872 0.0022379V0H8.20444H11.8766H11.8796C11.8992 0 11.9178 0.00183101 11.9367 0.0044758C12.229 0.0215652 12.4942 0.159094 12.6872 0.372712C12.8907 0.597316 13.017 0.908791 13.0202 1.25058L13.0196 1.25485H13.0222V1.26136V1.84261H19.0999H19.103C19.1285 1.84261 19.1525 1.84545 19.1771 1.84952C19.3954 1.87109 19.5933 1.97668 19.7374 2.13638L19.7381 2.13781L19.739 2.13638C19.8962 2.31073 19.995 2.55304 19.9978 2.82159L19.9974 2.8281H20V2.83461V5.03772C20 5.33719 19.7793 5.5799 19.5075 5.5799H19.4945H0.492544C0.220694 5.5797 0 5.33699 0 5.03772V5.0249V2.83461V2.83176C0 2.81019 0.000738723 2.78883 0.00332425 2.76767V2.7634C0.0197608 2.51784 0.118565 2.29466 0.26594 2.13313L0.264648 2.13272C0.423842 1.95755 0.644536 1.84871 0.888314 1.84505L0.894224 1.84545V1.84281H0.899949ZM14.3663 9.98857H13.2684V21.4004H14.3663V9.98857ZM10.7964 9.98857H9.69796V21.4004H10.7964V9.98857ZM7.22656 9.98857H6.12845V21.4004H7.22656V9.98857ZM2.00139 6.42257H18.1397L18.1912 6.42623L18.2147 6.42766L18.2394 6.4299H18.2411L18.2712 6.43458C18.5229 6.46774 18.7584 6.59509 18.9309 6.78206C19.123 6.99059 19.2458 7.27338 19.2458 7.58852C19.2458 7.60846 19.2441 7.62778 19.2423 7.6467L19.2419 7.66054L19.2393 7.69187L17.874 23.8322L17.8727 23.841H17.874L17.871 23.8692L17.8616 23.9268L17.8608 23.9315C17.8507 23.9988 17.8387 24.0629 17.8222 24.1203L17.821 24.1248L17.8189 24.1295L17.8147 24.1421L17.8139 24.1463C17.7921 24.2184 17.7652 24.2883 17.7342 24.3516C17.5478 24.7341 17.2025 25 16.7731 25H3.34826L3.30265 24.9972H3.30061L3.2947 24.9963C3.20975 24.9917 3.13052 24.9778 3.05684 24.9552C2.98019 24.9316 2.90577 24.8971 2.83577 24.8545L2.83411 24.8541C2.50446 24.6554 2.28432 24.2682 2.2483 23.8328L0.901242 7.68821L0.899211 7.66278L0.897179 7.61253L0.89644 7.58893C0.89644 7.27297 1.01814 6.98958 1.21077 6.78104C1.39102 6.58675 1.63923 6.45573 1.90443 6.4299L1.92696 6.42908V6.42766L1.98236 6.42501L2.00157 6.42542L2.00139 6.42257ZM18.1399 7.50775H2.00139V7.50633L1.97996 7.50714C1.94986 7.51162 1.9205 7.52871 1.89907 7.55231C1.88744 7.56512 1.87987 7.57916 1.87987 7.58872H1.87857L1.87987 7.61273L3.22471 23.7346V23.737C3.23062 23.8135 3.26202 23.8776 3.30726 23.9049L3.32241 23.9122L3.33404 23.9146H3.34826H16.7736C16.8119 23.9146 16.8473 23.8827 16.8693 23.8379L16.8848 23.7978L16.8948 23.7539L16.8974 23.7258L18.262 7.6109L18.2614 7.58852C18.2614 7.57936 18.2538 7.56594 18.2424 7.55353C18.2202 7.52952 18.1896 7.51243 18.1591 7.50734L18.1399 7.50775ZM7.55104 2.92738H0.984718V4.49513H19.0151V2.92738H12.5411H12.5295C12.2576 2.92738 12.0375 2.68487 12.0375 2.3854V1.26136V1.25485H12.0388C12.0375 1.21009 12.0192 1.16676 11.991 1.13584C11.9657 1.10715 11.9311 1.08925 11.8947 1.08457H11.8796H11.8766H8.20444H8.19872C8.15938 1.08599 8.12078 1.10451 8.09234 1.13604H8.09031C8.06612 1.1633 8.04765 1.19972 8.04248 1.23797L8.04377 1.25872V1.26136V2.3852C8.04358 2.68467 7.82289 2.92738 7.55104 2.92738Z" fill="#110101"/>
</svg>
