<svg width="20" height="25" viewBox="0 0 20 25" fill="none" xmlns="http://www.w3.org/2000/svg">
<path fill-rule="evenodd" clip-rule="evenodd" d="M10.0007 3.70502C11.2241 3.70542 12.4199 4.04725 13.4369 4.68729C14.4539 5.32733 15.2465 6.23683 15.7144 7.3008C16.1823 8.36477 16.3044 9.53543 16.0655 10.6648C15.8266 11.7941 15.2372 12.8314 14.372 13.6455C13.5068 14.4596 12.4045 15.0139 11.2046 15.2384C10.0046 15.4629 8.76091 15.3475 7.63066 14.9068C6.50042 14.466 5.53441 13.7197 4.85476 12.7622C4.17511 11.8048 3.81236 10.6791 3.81236 9.52759C3.81236 8.76279 3.97244 8.00548 4.28345 7.29892C4.59447 6.59236 5.05033 5.9504 5.625 5.40969C6.19966 4.86899 6.88187 4.44015 7.63266 4.14766C8.38345 3.85516 9.1881 3.70476 10.0007 3.70502ZM10.2946 23.5388C11.5993 22.7452 12.7887 21.7953 13.833 20.7129C16.0456 18.4465 17.5792 15.6677 18.2769 12.6606C18.8843 9.87955 18.6012 7.16764 17.2502 5.06403C16.8579 4.45604 16.3753 3.90389 15.8172 3.42427C14.1831 2.02051 12.3199 1.35117 10.4243 1.3349C8.4444 1.32066 6.43423 2.03475 4.65749 3.35713C3.92421 3.90237 3.29362 4.55986 2.79214 5.30206C1.54497 7.15137 1.16887 9.44622 1.57955 11.8489C1.99888 14.2902 3.23524 16.8556 5.20435 19.1729C6.64885 20.8691 8.36637 22.3422 10.2946 23.5388ZM14.8856 21.6142C13.6626 22.8789 12.256 23.9747 10.7075 24.8693C10.5923 24.9494 10.454 24.9949 10.3109 24.9996C10.1677 25.0043 10.0264 24.9681 9.90555 24.8958C7.69354 23.5825 5.72867 21.9325 4.09119 20.0131C1.97294 17.5087 0.632825 14.7236 0.178915 12.0584C-0.287964 9.33636 0.150816 6.71396 1.59036 4.5839C2.17806 3.71635 2.91596 2.94755 3.77345 2.3094C5.80307 0.787634 8.12666 -0.0180047 10.4373 0.000305314C12.6658 0.0186153 14.8683 0.797806 16.7726 2.44163C17.4316 3.00771 18.0009 3.65997 18.4628 4.37842C20.0083 6.77906 20.3455 9.83683 19.6668 12.9332C18.9175 16.176 17.2677 19.1737 14.8856 21.6203V21.6142ZM9.96391 7.68235C10.4373 7.18392 10.7658 6.75465 11.5007 6.66513C12.8689 6.50848 14.1248 7.92038 13.4331 9.30991C13.1514 9.79463 12.8017 10.2415 12.3934 10.6384C11.9092 11.145 11.3754 11.6414 10.9928 12.0177L9.96608 13.035L9.11662 12.2212C8.09424 11.2304 6.43206 9.98331 6.37154 8.43713C6.35332 8.20819 6.38632 7.9782 6.4684 7.76201C6.55048 7.54582 6.67982 7.34824 6.84807 7.18202C7.01631 7.0158 7.21973 6.88464 7.44518 6.79701C7.67062 6.70938 7.91309 6.66722 8.15692 6.67327C9.02151 6.68548 9.39977 7.12085 9.96391 7.67829V7.68235Z" fill="#110101"/>
</svg>
