<svg width="25" height="25" viewBox="0 0 25 25" fill="none" xmlns="http://www.w3.org/2000/svg">
<path d="M21.3389 3.66113C18.9779 1.30024 15.8389 0 12.5 0C9.16113 0 6.02207 1.30024 3.66113 3.66113C1.30024 6.02207 0 9.16113 0 12.5C0 15.8389 1.30024 18.9779 3.66113 21.3389C6.02207 23.6998 9.16113 25 12.5 25C15.8389 25 18.9779 23.6998 21.3389 21.3389C23.6998 18.9779 25 15.8389 25 12.5C25 9.16113 23.6998 6.02207 21.3389 3.66113ZM20.8209 20.8209C18.5983 23.0436 15.6433 24.2676 12.5 24.2676C9.35674 24.2676 6.40166 23.0436 4.17905 20.8209C1.95645 18.5983 0.732422 15.6433 0.732422 12.5C0.732422 9.35674 1.95645 6.40166 4.17905 4.17905C6.40166 1.95645 9.35674 0.732422 12.5 0.732422C15.6433 0.732422 18.5983 1.95645 20.8209 4.17905C23.0436 6.40166 24.2676 9.35674 24.2676 12.5C24.2676 15.6433 23.0436 18.5983 20.8209 20.8209Z" fill="black"/>
<path d="M16.4122 21.7607C15.2851 22.2374 14.0939 22.4995 12.8664 22.5431V21.2595C12.8664 21.0572 12.7024 20.8933 12.5002 20.8933C12.2979 20.8933 12.1339 21.0572 12.1339 21.2595V22.543C9.63868 22.4531 7.37266 21.4495 5.66084 19.8571L6.56514 18.9528C6.70816 18.8098 6.70816 18.5779 6.56514 18.4349C6.42212 18.2918 6.19024 18.2918 6.04722 18.4349L5.14292 19.3392C3.55054 17.6274 2.54692 15.3614 2.45708 12.8661H3.74063C3.94287 12.8661 4.10684 12.7021 4.10684 12.4999C4.10684 12.2976 3.94287 12.1337 3.74063 12.1337H2.45693C2.54492 9.69569 3.5085 7.4078 5.13882 5.65643L6.04727 6.56488C6.11875 6.63641 6.2125 6.67216 6.3062 6.67216C6.39991 6.67216 6.49366 6.63641 6.56514 6.56493C6.70816 6.42191 6.70816 6.19003 6.56514 6.04701L5.65698 5.13885C6.06026 4.76434 6.49654 4.41932 6.96485 4.10975C7.13355 3.99823 7.17989 3.77103 7.06836 3.60228C6.95679 3.43358 6.72964 3.38719 6.56094 3.49877C3.52798 5.50384 1.71729 8.86879 1.71729 12.4999C1.71729 15.3801 2.83892 18.0879 4.87554 20.1246C6.91216 22.1612 9.61998 23.2828 12.5002 23.2828C13.9557 23.2828 15.3679 22.9977 16.6975 22.4353C16.8837 22.3565 16.9709 22.1416 16.8921 21.9554C16.8133 21.769 16.5984 21.6819 16.4122 21.7607Z" fill="black"/>
<path d="M20.1248 4.875C18.0882 2.83838 15.3804 1.7168 12.5001 1.7168C10.891 1.7168 9.34291 2.06279 7.89882 2.74512C7.71596 2.83154 7.63773 3.04981 7.72416 3.23267C7.81054 3.41558 8.02885 3.4937 8.21171 3.40733C9.4473 2.82349 10.7652 2.50474 12.1339 2.45645V3.74009C12.1339 3.94233 12.2979 4.1063 12.5001 4.1063C12.7024 4.1063 12.8663 3.94233 12.8663 3.74009V2.45659C15.3616 2.54644 17.6276 3.5501 19.3394 5.14248L18.4351 6.04678C18.2921 6.1898 18.2921 6.42168 18.4351 6.5647C18.5066 6.63618 18.6004 6.67193 18.6941 6.67193C18.7878 6.67193 18.8815 6.63618 18.953 6.56465L19.8573 5.66035C21.4497 7.37217 22.4534 9.63819 22.5432 12.1335H21.2597C21.0574 12.1335 20.8934 12.2974 20.8934 12.4997C20.8934 12.7019 21.0574 12.8659 21.2597 12.8659H22.5434C22.484 14.4971 22.0297 16.0927 21.2192 17.5021C20.8374 18.166 20.38 18.783 19.8601 19.3418L18.953 18.4346C18.81 18.2916 18.5781 18.2916 18.4351 18.4346C18.2921 18.5776 18.2921 18.8095 18.4351 18.9525L19.342 19.8595C18.8425 20.3242 18.2967 20.7397 17.7114 21.0953C17.5385 21.2004 17.4835 21.4256 17.5886 21.5984C17.6575 21.7119 17.7782 21.7746 17.9019 21.7745C17.9667 21.7745 18.0323 21.7573 18.0917 21.7213C19.6465 20.7765 20.9476 19.4438 21.8541 17.8672C22.7889 16.2416 23.283 14.3855 23.283 12.4997C23.283 9.61944 22.1614 6.91162 20.1248 4.875Z" fill="black"/>
<path d="M16.6777 7.66342L12.9735 11.3676C12.8301 11.2988 12.6696 11.2602 12.5002 11.2602C12.3308 11.2602 12.1703 11.2988 12.0268 11.3676L10.0221 9.36293C9.87909 9.21991 9.6472 9.21991 9.50424 9.36293C9.36122 9.50595 9.36122 9.73783 9.50424 9.8808L11.5089 11.8854C11.4401 12.0289 11.4016 12.1894 11.4016 12.3588C11.4016 12.9646 11.8944 13.4575 12.5002 13.4575C13.106 13.4575 13.5988 12.9646 13.5988 12.3588C13.5988 12.1894 13.5602 12.0289 13.4914 11.8854L17.1956 8.18129C17.3386 8.03827 17.3386 7.80639 17.1956 7.66337C17.0526 7.5204 16.8207 7.5204 16.6777 7.66342ZM12.5002 12.725C12.2982 12.725 12.134 12.5607 12.134 12.3588C12.134 12.1569 12.2982 11.9926 12.5002 11.9926C12.7021 11.9926 12.8664 12.1569 12.8664 12.3588C12.8664 12.5608 12.7021 12.725 12.5002 12.725Z" fill="black"/>
<path d="M13.7939 16.7236C13.9962 16.7236 14.1602 16.5597 14.1602 16.3574C14.1602 16.1552 13.9962 15.9912 13.7939 15.9912H11.2061C11.0038 15.9912 10.8398 16.1552 10.8398 16.3574C10.8398 16.5597 11.0038 16.7236 11.2061 16.7236H13.7939Z" fill="black"/>
</svg>
