<svg width="25" height="30" viewBox="0 0 25 30" fill="none" xmlns="http://www.w3.org/2000/svg">
<g clip-path="url(#clip0_1446_2402)">
<path d="M3.35142 16.6211L2.15327 22.4829C2.13349 22.5635 2.09676 22.6367 2.04024 22.6929C1.61354 23.1689 1.34509 23.5767 1.26597 23.9063C1.20945 24.1504 1.26597 24.3457 1.4553 24.4995L6.13485 28.5425C6.43156 28.7891 6.77913 28.9453 7.1917 29.0088C7.64383 29.082 8.16944 29.0405 8.77416 28.8989C8.78264 28.8989 8.79677 28.894 8.80807 28.894C9.03696 28.8403 9.33932 28.7769 9.62473 28.7158C10.8794 28.4522 11.973 28.2202 12.9903 27.4243L14.2958 26.2476C14.3099 26.228 14.3297 26.2109 14.3467 26.1938C14.3665 26.1768 14.4936 26.0669 14.666 25.9253C15.5589 25.1709 16.6638 24.2407 15.9913 23.4253L15.4685 22.9736C15.2142 23.1836 14.9457 23.3911 14.6886 23.5913C14.4541 23.7695 14.2336 23.9355 14.0302 24.1113C13.8154 24.2969 13.465 24.2969 13.2503 24.1113C13.0355 23.9233 13.0355 23.623 13.2503 23.4375C13.4509 23.2617 13.7024 23.0713 13.9595 22.8735C14.844 22.1997 15.8585 21.4282 15.3131 20.7544L14.796 20.3076C14.7677 20.2832 14.7451 20.2539 14.7197 20.2271C14.423 20.4907 14.0952 20.7422 13.7759 20.9863C13.5413 21.1646 13.3209 21.3306 13.1174 21.5063C12.8999 21.6943 12.5523 21.6943 12.3375 21.5063C12.1199 21.3208 12.1199 21.0181 12.3375 20.8325C12.5381 20.6592 12.7896 20.4663 13.0468 20.2686C13.9313 19.5947 14.9457 18.8232 14.4004 18.1494L13.8832 17.7026C13.8465 17.6709 13.8182 17.6367 13.7928 17.6001L12.2753 18.9111C12.0578 19.0967 11.7102 19.0967 11.4954 18.9111C11.2807 18.7231 11.2807 18.4229 11.4954 18.2373L14.341 15.7788C15.022 15.1904 15.1775 14.5776 14.9994 14.1138C14.9344 13.9429 14.8242 13.7939 14.6886 13.6743C14.6179 13.6133 14.5388 13.5596 14.4512 13.5132H14.4484C14.406 13.5303 14.3749 13.4937 14.3354 13.4595C14.2873 13.4399 14.2336 13.4204 14.1828 13.4058C13.7109 13.2715 13.0977 13.3667 12.476 13.8184C12.4675 13.8257 12.459 13.833 12.4505 13.8379C12.3827 13.8867 12.3149 13.9404 12.2471 13.999L6.34113 19.1089C6.12637 19.2944 5.77597 19.2944 5.56121 19.1089C5.3634 18.938 5.34645 18.6743 5.51034 18.4863L3.35142 16.6211ZM7.08715 17.1167L7.27648 16.9531L11.1733 13.5864C10.7692 13.4253 10.3934 13.1982 10.0599 12.9102C8.57635 11.6284 8.57635 9.55811 10.0599 8.27637C11.5435 6.99463 13.9398 6.99463 15.4233 8.27637C16.9069 9.55811 16.9069 11.6284 15.4233 12.9102C15.412 12.9199 15.3979 12.9321 15.3866 12.9419C15.4148 12.9639 15.4459 12.9883 15.4742 13.0127C15.5957 13.1177 15.7002 13.2324 15.7935 13.3545L20.6256 9.17969C19.8853 8.54004 19.8853 7.49512 20.6256 6.85303L17.0255 3.74268C16.2852 4.38232 15.0757 4.38232 14.3325 3.74268L4.31785 12.395C5.05821 13.0347 5.05821 14.0796 4.31785 14.7217L7.08715 17.1167ZM15.5816 16.0083C15.4516 16.1646 15.3018 16.3208 15.1238 16.4722L14.5586 16.9605L14.553 16.9482C14.5953 16.9678 14.6321 16.9922 14.6716 17.0264L15.2114 17.4927C15.2396 17.5171 15.2679 17.5488 15.2905 17.5781C15.898 18.2959 15.802 18.938 15.3894 19.5239C15.4657 19.5483 15.5363 19.585 15.59 19.6338L16.1298 20.1001C16.158 20.1245 16.1863 20.1563 16.2089 20.1855C16.8616 20.9619 16.6978 21.6382 16.2089 22.2559C16.2315 22.2681 16.2513 22.2852 16.2739 22.3047L16.8136 22.771C16.8419 22.7954 16.8701 22.8272 16.8927 22.8564C18.1474 24.3384 16.6525 25.5957 15.4516 26.6113L15.1407 26.8799L13.8013 28.0933L13.7589 28.1299C12.5325 29.0918 11.3146 29.3481 9.91014 29.6436C9.6756 29.6924 9.4354 29.7461 9.10761 29.8169C9.09913 29.8169 9.09348 29.8218 9.085 29.8218C8.32486 30 7.63253 30.0439 7.01368 29.9487C6.38352 29.8511 5.83814 29.6069 5.38318 29.2212L0.712106 25.1831C0.237369 24.79 0.0791229 24.3018 0.20911 23.7256C0.313666 23.2617 0.62168 22.7515 1.11055 22.1997L2.35956 16.0864V16.062C2.37086 15.9863 2.38782 15.9009 2.4076 15.8081L0 13.728L15.8896 0L25 7.87109L15.5816 16.0083Z" fill="black"/>
</g>
<defs>
<clipPath id="clip0_1446_2402">
<rect width="25" height="30" fill="white"/>
</clipPath>
</defs>
</svg>
