<svg width="20" height="25" viewBox="0 0 20 25" fill="none" xmlns="http://www.w3.org/2000/svg">
<path d="M10 5.55555C9.15237 5.55555 8.32377 5.79992 7.61899 6.25775C6.9142 6.71559 6.36489 7.36634 6.04052 8.12769C5.71614 8.88905 5.63127 9.72683 5.79663 10.5351C5.962 11.3433 6.37017 12.0858 6.96954 12.6685C7.56891 13.2512 8.33255 13.648 9.1639 13.8088C9.99524 13.9696 10.857 13.8871 11.6401 13.5717C12.4232 13.2563 13.0925 12.7223 13.5634 12.0371C14.0344 11.3519 14.2857 10.5463 14.2857 9.72221C14.2857 8.61714 13.8342 7.55733 13.0305 6.77593C12.2267 5.99453 11.1366 5.55555 10 5.55555ZM10 12.9629C9.34073 12.9629 8.69626 12.7729 8.1481 12.4168C7.59994 12.0607 7.17269 11.5545 6.9204 10.9624C6.66811 10.3702 6.6021 9.71861 6.73072 9.08997C6.85933 8.46133 7.1768 7.88388 7.64298 7.43066C8.10915 6.97743 8.7031 6.66878 9.3497 6.54374C9.9963 6.41869 10.6665 6.48287 11.2756 6.72816C11.8847 6.97344 12.4053 7.38881 12.7716 7.92175C13.1378 8.45469 13.3333 9.08125 13.3333 9.72221C13.3333 10.1478 13.2471 10.5692 13.0796 10.9624C12.9121 11.3556 12.6666 11.7128 12.357 12.0138C12.0475 12.3147 11.68 12.5534 11.2756 12.7163C10.8712 12.8791 10.4377 12.9629 10 12.9629ZM10 0C7.34871 0.00275733 4.80681 1.02794 2.93206 2.85061C1.05732 4.67328 0.00283612 7.14456 0 9.72221C0 13.243 1.6869 16.9896 4.88095 20.5578C6.3259 22.1811 7.95218 23.6431 9.72976 24.9166C9.80971 24.9709 9.90487 25 10.0024 25C10.0999 25 10.1951 24.9709 10.275 24.9166C12.0509 23.6428 13.6756 22.1809 15.119 20.5578C18.3107 16.9896 20 13.243 20 9.72221C19.9972 7.14456 18.9427 4.67328 17.0679 2.85061C15.1932 1.02794 12.6513 0.00275733 10 0ZM14.4167 19.934C13.0862 21.4153 11.6066 22.7635 10 23.9583C8.39312 22.762 6.91352 21.4123 5.58333 19.9294C3.47024 17.5694 0.952381 13.8773 0.952381 9.72221C0.952381 7.38929 1.90561 5.15192 3.60237 3.5023C5.29913 1.85267 7.60042 0.925924 10 0.925924C12.3996 0.925924 14.7009 1.85267 16.3976 3.5023C18.0944 5.15192 19.0476 7.38929 19.0476 9.72221C19.0476 13.8773 16.5298 17.5694 14.4167 19.934Z" fill="black"/>
</svg>
