<svg width="35" height="35" viewBox="0 0 35 35" fill="none" xmlns="http://www.w3.org/2000/svg">
<rect width="35" height="35" rx="5" fill="#FFEFBB"/>
<path d="M17.5938 6C15.3153 6.00258 13.131 6.90883 11.5199 8.51991C9.90882 10.131 9.00258 12.3153 9 14.5938C9 21.9473 16.8125 27.501 17.1455 27.7334C17.2769 27.8254 17.4334 27.8748 17.5938 27.8748C17.7541 27.8748 17.9106 27.8254 18.042 27.7334C18.375 27.501 26.1875 21.9473 26.1875 14.5938C26.1849 12.3153 25.2787 10.131 23.6676 8.51991C22.0565 6.90883 19.8722 6.00258 17.5938 6ZM17.5938 11.4688C18.2118 11.4688 18.816 11.652 19.3299 11.9954C19.8438 12.3388 20.2444 12.8268 20.4809 13.3979C20.7174 13.9689 20.7793 14.5972 20.6587 15.2034C20.5381 15.8096 20.2405 16.3664 19.8035 16.8035C19.3664 17.2405 18.8096 17.5381 18.2034 17.6587C17.5972 17.7793 16.9689 17.7174 16.3979 17.4809C15.8268 17.2444 15.3388 16.8438 14.9954 16.3299C14.652 15.816 14.4688 15.2118 14.4688 14.5938C14.4688 13.7649 14.798 12.9701 15.384 12.384C15.9701 11.798 16.7649 11.4688 17.5938 11.4688Z" fill="#FEC200"/>
</svg>
