<svg width="22" height="28" viewBox="0 0 22 28" fill="none" xmlns="http://www.w3.org/2000/svg">
<path d="M11.0973 6.46028C10.1871 6.46028 9.29729 6.72297 8.54045 7.21513C7.78361 7.70728 7.19373 8.40681 6.84539 9.22524C6.49706 10.0437 6.40592 10.9442 6.5835 11.8131C6.76108 12.6819 7.1994 13.48 7.84304 14.1064C8.48668 14.7328 9.30673 15.1594 10.1995 15.3322C11.0922 15.505 12.0176 15.4163 12.8586 15.0773C13.6995 14.7383 14.4183 14.1642 14.924 13.4277C15.4297 12.6911 15.6996 11.8251 15.6996 10.9393C15.6996 9.75137 15.2147 8.61212 14.3516 7.77215C13.4885 6.93217 12.3179 6.46028 11.0973 6.46028ZM11.0973 14.4229C10.3894 14.4229 9.6973 14.2186 9.10865 13.8358C8.52 13.453 8.0612 12.909 7.79027 12.2724C7.51934 11.6359 7.44846 10.9354 7.58657 10.2596C7.72469 9.58388 8.06561 8.96315 8.56622 8.47595C9.06683 7.98875 9.70464 7.65697 10.399 7.52255C11.0934 7.38813 11.8131 7.45712 12.4672 7.72079C13.1212 7.98446 13.6803 8.43097 14.0736 9.00386C14.4669 9.57674 14.6769 10.2503 14.6769 10.9393C14.6769 11.3968 14.5843 11.8498 14.4044 12.2724C14.2245 12.6951 13.9609 13.0791 13.6285 13.4026C13.2961 13.7261 12.9015 13.9827 12.4672 14.1578C12.0329 14.3328 11.5674 14.4229 11.0973 14.4229ZM11.0973 0.488281C8.25021 0.491245 5.52057 1.59328 3.50734 3.55258C1.49412 5.51188 0.361749 8.16841 0.358704 10.9393C0.358704 14.724 2.17021 18.7514 5.60018 22.5872C7.15186 24.3322 8.89826 25.9037 10.8071 27.2727C10.893 27.331 10.9952 27.3623 11.0999 27.3623C11.2046 27.3623 11.3068 27.331 11.3927 27.2727C13.2997 25.9034 15.0444 24.3319 16.5945 22.5872C20.0219 18.7514 21.836 14.724 21.836 10.9393C21.8329 8.16841 20.7006 5.51188 18.6873 3.55258C16.6741 1.59328 13.9445 0.491245 11.0973 0.488281ZM15.8402 21.9166C14.4115 23.5089 12.8227 24.9582 11.0973 26.2425C9.37177 24.9566 7.78288 23.5057 6.35444 21.9116C4.08527 19.3747 1.38143 15.4058 1.38143 10.9393C1.38143 8.43148 2.40507 6.02639 4.22715 4.25311C6.04924 2.47983 8.52052 1.48361 11.0973 1.48361C13.6742 1.48361 16.1454 2.47983 17.9675 4.25311C19.7896 6.02639 20.8132 8.43148 20.8132 10.9393C20.8132 15.4058 18.1094 19.3747 15.8402 21.9166Z" fill="black"/>
</svg>
