<svg width="25" height="20" viewBox="0 0 25 20" fill="none" xmlns="http://www.w3.org/2000/svg">
<path fill-rule="evenodd" clip-rule="evenodd" d="M24.7335 8.84167C24.9064 9.15437 25 9.4891 25 9.83484C25 11.6714 22.3755 13.1601 19.1406 13.1601C15.9058 13.1601 13.2812 11.6714 13.2812 9.83484C13.2812 9.4891 13.3748 9.15437 13.5478 8.84167C14.2924 10.1916 16.5141 11.1738 19.1406 11.1738C21.7672 11.1738 23.9889 10.1938 24.7335 8.84167ZM11.4522 13.7943C11.6252 14.1092 11.7188 14.4418 11.7188 14.7875C11.7188 16.6241 9.09424 18.1128 5.85938 18.1128C2.62451 18.1128 0 16.6241 0 14.7875C0 14.4418 0.0935872 14.107 0.26652 13.7943C1.01115 15.1442 3.23486 16.1264 5.85938 16.1264C8.48592 16.1264 10.7076 15.1464 11.4522 13.7943ZM6.7098 8.93195L6.69759 8.10835C6.87052 8.10174 7.01091 8.04448 7.11873 7.93878C7.2286 7.83308 7.2876 7.70535 7.29981 7.5556C7.31405 7.38384 7.26115 7.23409 7.14315 7.10196C7.02515 6.97203 6.8339 6.89276 6.57552 6.86853C6.33342 6.84651 6.14624 6.88835 6.01603 6.99405C5.88582 7.09976 5.81258 7.2473 5.79834 7.43669C5.78003 7.67232 5.85938 7.89253 6.03638 8.09734L5.89396 8.75358L3.87166 8.13918L4.0446 5.97225L4.7526 6.03832L4.6285 7.58423L5.28971 7.77582C5.22054 7.58423 5.19206 7.39485 5.20833 7.20326C5.23682 6.8399 5.38534 6.54261 5.64779 6.31359C5.91227 6.08456 6.23983 5.98767 6.63045 6.0251C6.95597 6.05593 7.23674 6.18366 7.47477 6.41268C7.80029 6.72319 7.94474 7.12618 7.90405 7.61947C7.8715 8.01365 7.74943 8.32636 7.53377 8.55759C7.32015 8.79102 7.04549 8.91654 6.7098 8.93195ZM5.85938 5.62872C8.51847 5.62872 10.675 6.54481 10.675 7.67232C10.675 8.80203 8.51847 9.71592 5.85938 9.71592C3.20028 9.71592 1.0437 8.80423 1.0437 7.67452C1.0437 6.54481 3.20028 5.62872 5.85938 5.62872ZM5.85938 4.95265C9.09424 4.95265 11.7188 6.44131 11.7188 8.27791C11.7188 10.1145 9.09424 11.6032 5.85938 11.6032C2.62451 11.601 0 10.1123 0 8.27791C0 6.44131 2.62451 4.95265 5.85938 4.95265ZM11.4726 10.4933C11.6313 10.795 11.7188 11.1165 11.7188 11.4468C11.7188 13.2834 9.09424 14.7721 5.85938 14.7721C2.62451 14.7721 0 13.2834 0 11.449C0 11.1165 0.0854492 10.7972 0.246175 10.4955C0.970459 11.8652 3.20841 12.865 5.85938 12.865C8.51034 12.8628 10.7503 11.8652 11.4726 10.4933ZM21.2565 1.97093L21.1894 2.79674L18.3126 2.52588C18.5506 2.85179 18.7134 3.22616 18.8049 3.64677L18.1132 3.58071C18.0664 3.36049 17.9606 3.11385 17.7999 2.84519C17.6371 2.57432 17.4398 2.38274 17.2038 2.26602L17.2587 1.59656L21.2565 1.97093ZM19.1406 0.678265C21.7997 0.678265 23.9563 1.59436 23.9563 2.72187C23.9563 3.85157 21.7997 4.76547 19.1406 4.76547C16.4815 4.76547 14.325 3.84937 14.325 2.72187C14.325 1.59216 16.4815 0.678265 19.1406 0.678265ZM19.1406 0C22.3755 0 25 1.48866 25 3.32526C25 5.16186 22.3755 6.65052 19.1406 6.65052C15.9058 6.65052 13.2812 5.16186 13.2812 3.32526C13.2812 1.48866 15.9058 0 19.1406 0ZM24.7538 5.54063C24.9125 5.84233 25 6.16384 25 6.49416C25 8.33076 22.3755 9.81942 19.1406 9.81942C15.9058 9.81942 13.2812 8.33076 13.2812 6.49416C13.2812 6.16164 13.3667 5.84233 13.5274 5.54063C14.2497 6.91037 16.4897 7.91015 19.1406 7.91015C21.7916 7.91235 24.0316 6.91257 24.7538 5.54063ZM24.6969 15.6177C24.8922 15.9502 25 16.3048 25 16.6747C25 18.5113 22.3755 20 19.1406 20C15.9058 20 13.2812 18.5113 13.2812 16.6747C13.2812 16.3048 13.387 15.9502 13.5844 15.6177C14.3636 16.9346 16.5568 17.8859 19.1406 17.8859C21.7244 17.8859 23.9197 16.9368 24.6969 15.6177ZM24.7253 12.1978C24.9044 12.5171 25 12.854 25 13.2063C25 15.0429 22.3755 16.5316 19.1406 16.5316C15.9058 16.5316 13.2812 15.0429 13.2812 13.2063C13.2812 12.854 13.3789 12.5149 13.5559 12.1978C14.3087 13.5411 16.5243 14.5122 19.1406 14.5122C21.757 14.5122 23.9705 13.5411 24.7253 12.1978Z" fill="#110101"/>
</svg>
