<svg width="48" height="48" viewBox="0 0 48 48" fill="none" xmlns="http://www.w3.org/2000/svg">
<rect width="48" height="48" rx="24" fill="#FEC200"/>
<g clip-path="url(#clip0_159_1813)">
<path d="M34.9088 24.1007V20.7275C34.9088 19.5837 34.0216 18.6535 32.9006 18.5633L29.7681 13.0918C29.4778 12.5858 29.009 12.2241 28.4481 12.0739C27.8899 11.9247 27.3061 12.0031 26.8064 12.2939L16.0678 18.5457H14.1818C12.9785 18.5457 12 19.5242 12 20.7275V33.8182C12 35.0215 12.9785 36 14.1818 36H32.727C33.9302 36 34.9088 35.0215 34.9088 33.8182V30.445C35.5423 30.2191 35.9996 29.6194 35.9996 28.9092V25.6365C35.9996 24.9263 35.5423 24.3266 34.9088 24.1007ZM31.633 18.5457H26.8789L30.4445 16.4698L31.633 18.5457ZM29.9025 15.5231L24.7108 18.5457H22.5573L29.3641 14.5827L29.9025 15.5231ZM27.3556 13.2367C27.6022 13.0923 27.8904 13.054 28.1658 13.1275C28.4444 13.202 28.6766 13.3821 28.821 13.634L28.8221 13.636L20.3893 18.5457H18.236L27.3556 13.2367ZM33.8178 33.8182C33.8178 34.4195 33.3283 34.9091 32.727 34.9091H14.1818C13.5804 34.9091 13.0909 34.4195 13.0909 33.8182V20.7275C13.0909 20.1261 13.5804 19.6366 14.1818 19.6366H32.727C33.3283 19.6366 33.8178 20.1261 33.8178 20.7275V24.0002H30.5452C28.7405 24.0002 27.2725 25.4682 27.2725 27.2728C27.2725 29.0775 28.7405 30.5455 30.5452 30.5455H33.8178V33.8182ZM34.9088 28.9092C34.9088 29.2101 34.6643 29.4546 34.3633 29.4546H30.5452C29.3419 29.4546 28.3634 28.4762 28.3634 27.2728C28.3634 26.0696 29.3418 25.091 30.5452 25.091H34.3633C34.6642 25.091 34.9088 25.3355 34.9088 25.6365V28.9092Z" fill="white"/>
<path d="M30.545 26.1819C29.9436 26.1819 29.4541 26.6714 29.4541 27.2728C29.4541 27.8741 29.9436 28.3636 30.545 28.3636C31.1463 28.3636 31.6359 27.8741 31.6359 27.2728C31.6359 26.6714 31.1464 26.1819 30.545 26.1819Z" fill="white"/>
</g>
<defs>
<clipPath id="clip0_159_1813">
<rect width="24" height="24" fill="white" transform="translate(12 12)"/>
</clipPath>
</defs>
</svg>
