<svg width="26" height="26" viewBox="0 0 26 26" fill="none" xmlns="http://www.w3.org/2000/svg">
<path d="M16.2151 22.7086C16.1349 23.1033 15.9941 23.4654 15.7904 23.797C15.5801 24.1368 15.3049 24.444 14.9668 24.7125C14.6266 24.9811 14.2582 25.1845 13.8572 25.3208C13.4563 25.4572 13.0315 25.5243 12.5829 25.5243C12.1321 25.5243 11.7074 25.4551 11.3086 25.3208C10.9098 25.1845 10.5393 24.9831 10.2012 24.7125C9.86093 24.442 9.58786 24.1368 9.37764 23.797C9.16743 23.4573 9.02439 23.083 8.94637 22.672C8.90736 22.4726 9.0504 22.2814 9.26278 22.2448C9.26928 22.2448 9.33213 22.2387 9.33213 22.2387H15.838C16.0548 22.2387 16.2325 22.4035 16.2325 22.6089C16.2303 22.6435 16.2238 22.6761 16.2151 22.7086ZM4.3801 0.575903C4.7767 0.427389 5.2253 0.610489 5.38351 0.982792C5.54171 1.3551 5.34667 1.77623 4.95007 1.92474C4.09186 2.24618 3.37236 2.69173 2.79805 3.26951C2.22591 3.84729 1.79464 4.56341 1.51291 5.42398C1.38721 5.80646 0.953772 6.02211 0.54634 5.90411C0.138908 5.78611 -0.0908142 5.37923 0.0348828 4.99675C0.388135 3.91849 0.934267 3.0152 1.66461 2.27873C2.39495 1.5443 3.30301 0.978723 4.3801 0.575903ZM20.2136 1.92474C19.817 1.77623 19.622 1.3551 19.7802 0.982792C19.9384 0.610489 20.387 0.427389 20.7836 0.575903C21.8607 0.978723 22.7687 1.5443 23.4991 2.28077C24.2294 3.01927 24.7777 3.92256 25.1288 4.99879C25.2545 5.38126 25.0248 5.78815 24.6173 5.90615C24.2099 6.02415 23.7765 5.80849 23.6508 5.42602C23.369 4.56341 22.9378 3.84729 22.3656 3.27154C21.7913 2.69173 21.0718 2.24618 20.2136 1.92474ZM14.6548 2.66935C14.9733 2.74666 15.2832 2.84227 15.5845 2.95417C16.0266 3.11896 16.4514 3.3163 16.8588 3.54619C16.874 3.55636 16.8913 3.5645 16.9065 3.57467C17.2966 3.8005 17.6606 4.0487 17.9944 4.31725C18.3455 4.60003 18.6706 4.9113 18.974 5.25309L18.9761 5.25513C19.273 5.59081 19.5374 5.9509 19.7715 6.33135C20.0055 6.71382 20.2071 7.11257 20.374 7.52353C20.5452 7.94873 20.673 8.38207 20.7597 8.82761C20.8442 9.27519 20.8876 9.73294 20.8876 10.2029C20.8876 11.1306 20.8876 11.6331 20.8876 11.6941C20.8898 12.1702 20.8919 12.6361 20.8963 13.0898V13.0938C20.8984 13.5048 20.9266 13.9178 20.9808 14.3308C21.035 14.7397 21.113 15.1344 21.2148 15.5148C21.3167 15.8892 21.4554 16.2513 21.6266 16.5972C21.8043 16.9532 22.021 17.3031 22.2746 17.6429H22.2768C22.5282 17.9765 22.8424 18.3081 23.2195 18.6336C23.6096 18.9693 24.0604 19.3009 24.5762 19.6224C24.8709 19.8075 24.9511 20.1839 24.7517 20.4606C24.6282 20.6335 24.4244 20.7291 24.2164 20.7291V20.7311H18.3975H12.5829H6.76401H0.94727C0.589684 20.7311 0.301447 20.4606 0.301447 20.1249C0.301447 19.9052 0.427144 19.7119 0.613523 19.6061C1.13582 19.2745 1.58442 18.9449 1.95935 18.6194C2.33211 18.2959 2.64418 17.9643 2.89557 17.6225C2.90208 17.6123 2.91075 17.6022 2.91941 17.594C3.16214 17.2604 3.37019 16.9206 3.5414 16.5748C3.71694 16.2228 3.85781 15.8607 3.96183 15.4884C3.964 15.4802 3.96617 15.4721 3.96833 15.466C4.06802 15.1039 4.14388 14.7214 4.19589 14.3206C4.2479 13.9178 4.27607 13.5007 4.27607 13.0715V10.2029C4.27607 9.74107 4.31942 9.28332 4.40827 8.82557C4.49713 8.36986 4.62499 7.93245 4.7962 7.51539C4.96524 7.09833 5.16896 6.69755 5.40518 6.31507C5.63924 5.93463 5.90797 5.57453 6.20921 5.23275L6.21354 5.22868C6.51262 4.89299 6.84203 4.57969 7.19962 4.29283C7.55287 4.01005 7.93429 3.75167 8.34389 3.52178C8.75783 3.28985 9.18693 3.09455 9.62904 2.93586C9.93678 2.826 10.2554 2.73445 10.5804 2.65917C10.691 2.29501 10.8817 2.00001 11.1526 1.77419C11.5253 1.46292 12.0151 1.3083 12.6241 1.31441C13.2266 1.31848 13.7142 1.47513 14.0826 1.7864C14.3513 2.01426 14.5442 2.30722 14.6548 2.66935ZM15.1164 4.07922C14.7588 3.94698 14.3947 3.84322 14.0241 3.76795C13.738 3.73336 13.504 3.52178 13.4671 3.24103C13.4325 2.97655 13.3523 2.79141 13.2244 2.68562C13.0965 2.57983 12.8928 2.5249 12.6133 2.52287C12.3337 2.52083 12.1321 2.57169 12.0086 2.67545C11.8829 2.78124 11.8027 2.96841 11.7702 3.23696C11.7399 3.4933 11.534 3.71302 11.2479 3.76184C10.847 3.83305 10.4591 3.93477 10.0841 4.06904C9.70922 4.20128 9.35164 4.36607 9.00489 4.55934C8.6603 4.75262 8.33739 4.9703 8.03832 5.2124C7.73925 5.45247 7.45968 5.71694 7.20395 6.00584C6.95256 6.29066 6.72717 6.59786 6.52562 6.92337C6.3284 7.24481 6.15503 7.5866 6.00766 7.94873C5.86029 8.30883 5.75193 8.67503 5.68041 9.04123C5.6089 9.40946 5.57422 9.79804 5.57422 10.2049V13.0735C5.57422 13.5496 5.54388 14.0134 5.48537 14.4691C5.42685 14.9065 5.34017 15.3419 5.22097 15.7712C5.2188 15.7813 5.21664 15.7895 5.21447 15.7996C5.09094 16.2371 4.92407 16.6663 4.71385 17.0895C4.51013 17.4984 4.26741 17.8951 3.98784 18.2796C3.97917 18.2918 3.9705 18.304 3.96183 18.3163C3.66709 18.715 3.29217 19.1117 2.83923 19.5064L2.82189 19.5206H6.77051H12.5894H18.3997H22.3418C21.8997 19.1382 21.5269 18.7435 21.2235 18.3407V18.3386C20.9266 17.9399 20.673 17.531 20.4628 17.1119C20.2483 16.6846 20.0836 16.2513 19.9644 15.8159V15.8139C19.8473 15.3806 19.7585 14.935 19.7 14.4793C19.6436 14.0439 19.6133 13.5841 19.6111 13.102V13.0999C19.6068 12.6503 19.6046 12.1824 19.6024 11.6941C19.5981 10.7908 19.5981 10.2985 19.5981 10.2029C19.5981 9.80414 19.5634 9.41556 19.4898 9.03919C19.4182 8.66485 19.312 8.30272 19.1712 7.9528V7.95076C19.026 7.59067 18.8548 7.25091 18.6597 6.93151C18.4647 6.6121 18.2393 6.30897 17.9857 6.02008C17.7343 5.73729 17.4591 5.47484 17.16 5.23275C16.8696 4.99878 16.5619 4.78924 16.239 4.60003C16.2238 4.59393 16.2108 4.58579 16.1956 4.57765C15.8445 4.38438 15.4848 4.21756 15.1164 4.07922Z" fill="#110101"/>
</svg>
