<svg width="22" height="25" viewBox="0 0 22 25" fill="none" xmlns="http://www.w3.org/2000/svg">
<path d="M13.2034 23.6581H1.39297C1.0238 23.6571 0.67001 23.4969 0.408929 23.2126L0.373451 23.1658C0.136599 22.8895 0.00335585 22.5266 0 22.1486L0 1.51767C0.000144351 1.31845 0.0363355 1.12121 0.106503 0.937248C0.176671 0.753282 0.279439 0.586191 0.408929 0.445535L0.451876 0.406881C0.705337 0.148657 1.03851 0.00345849 1.3855 0L17.1563 0C17.5255 0.00107392 17.8792 0.161315 18.1402 0.445701C18.4012 0.730086 18.5483 1.11549 18.5493 1.51767V13.5552C18.5495 13.5983 18.5457 13.6412 18.5381 13.6834C19.2668 13.985 19.9265 14.4559 20.4713 15.0633C21.0161 15.6708 21.4329 16.4002 21.6928 17.2009C21.9527 18.0016 22.0495 18.8543 21.9763 19.6999C21.9032 20.5454 21.6619 21.3635 21.2693 22.0972C20.8766 22.8308 20.3421 23.4626 19.7027 23.9484C19.0633 24.4343 18.3345 24.7626 17.5669 24.9105C16.7993 25.0585 16.0114 25.0226 15.2578 24.8052C14.5043 24.5879 13.8032 24.1944 13.2034 23.652V23.6581ZM15.9053 16.7065H16.4449C16.4945 16.7062 16.5437 16.7167 16.5895 16.7373C16.6353 16.7579 16.677 16.7882 16.7119 16.8266C16.7831 16.9044 16.8233 17.0096 16.824 17.1195V19.2801H18.6147C18.7137 19.2801 18.8087 19.3229 18.8787 19.3992C18.9488 19.4755 18.9881 19.579 18.9881 19.6869V20.2973C18.9863 20.4069 18.9462 20.5116 18.8761 20.5902L18.8611 20.6045C18.7922 20.6728 18.7023 20.7105 18.6091 20.7103H15.6849C15.6354 20.7103 15.5879 20.6888 15.5529 20.6507C15.5179 20.6125 15.4982 20.5608 15.4982 20.5068V17.089C15.5043 16.9898 15.5435 16.8964 15.6084 16.8266C15.6432 16.7879 15.6847 16.7572 15.7306 16.7362C15.7764 16.7152 15.8257 16.7045 15.8754 16.7045L15.9053 16.7065ZM17.3524 13.3559V1.51767C17.3479 1.46362 17.3256 1.41319 17.2895 1.37577C17.2534 1.33834 17.2061 1.31647 17.1563 1.31423H1.39297C1.34827 1.31451 1.30492 1.33097 1.26973 1.36102L1.25479 1.37729C1.21814 1.41727 1.19736 1.47133 1.19691 1.52784V22.1425C1.19638 22.1907 1.21161 22.2376 1.23986 22.2747L1.25666 22.291C1.27407 22.3114 1.29516 22.3278 1.31861 22.339C1.34206 22.3502 1.36737 22.356 1.39297 22.3561H12.1372C11.6069 21.4746 11.305 20.4533 11.2636 19.4003C11.2222 18.3473 11.4427 17.3016 11.9018 16.3739C12.361 15.4462 13.0416 14.6709 13.8719 14.13C14.7022 13.5891 15.6512 13.3026 16.6186 13.3009C16.8622 13.3007 17.1055 13.3191 17.3468 13.3559H17.3524ZM19.6603 15.8419C18.9588 15.0751 18.0349 14.5971 17.0462 14.4893C16.0574 14.3815 15.0649 14.6506 14.2378 15.2508C13.4108 15.8509 12.8003 16.745 12.5106 17.7806C12.2208 18.8162 12.2696 19.9293 12.6486 20.9301C13.0277 21.9309 13.7136 22.7575 14.5894 23.269C15.4652 23.7806 16.4767 23.9454 17.4515 23.7354C18.4264 23.5255 19.3042 22.9537 19.9354 22.1175C20.5667 21.2813 20.9123 20.2325 20.9132 19.1499C20.9141 18.5355 20.8036 17.9269 20.5879 17.3593C20.3723 16.7916 20.0557 16.2759 19.6566 15.8419H19.6603ZM3.88202 15.0729H5.56255C5.59195 15.0721 5.62121 15.0777 5.64859 15.0894C5.67597 15.1011 5.70093 15.1187 5.72199 15.141C5.74304 15.1634 5.75978 15.1901 5.7712 15.2197C5.78262 15.2492 5.7885 15.2809 5.78849 15.313V17.1439C5.78849 17.2076 5.76528 17.2687 5.72395 17.3137C5.68263 17.3587 5.62659 17.384 5.56815 17.384H3.88762C3.82919 17.384 3.77314 17.3587 3.73182 17.3137C3.6905 17.2687 3.66729 17.2076 3.66729 17.1439V15.313C3.66729 15.2814 3.67299 15.2502 3.68406 15.2211C3.69513 15.192 3.71136 15.1655 3.73182 15.1432C3.75228 15.1209 3.77657 15.1033 3.8033 15.0912C3.83004 15.0791 3.85869 15.0729 3.88762 15.0729H3.88202ZM7.98998 16.9608C7.83319 16.9295 7.69145 16.8392 7.58942 16.7058C7.48738 16.5724 7.4315 16.4042 7.4315 16.2305C7.4315 16.0568 7.48738 15.8886 7.58942 15.7552C7.69145 15.6217 7.83319 15.5315 7.98998 15.5001H9.77881C9.9356 15.5315 10.0773 15.6217 10.1794 15.7552C10.2814 15.8886 10.3373 16.0568 10.3373 16.2305C10.3373 16.4042 10.2814 16.5724 10.1794 16.7058C10.0773 16.8392 9.9356 16.9295 9.77881 16.9608H7.98998ZM3.88202 4.50621H5.56255C5.59195 4.50539 5.62121 4.511 5.64859 4.5227C5.67597 4.5344 5.70093 4.55195 5.72199 4.57433C5.74304 4.5967 5.75978 4.62344 5.7712 4.65297C5.78262 4.6825 5.7885 4.71422 5.78849 4.74627V6.57723C5.78849 6.6409 5.76528 6.70196 5.72395 6.74698C5.68263 6.792 5.62659 6.81729 5.56815 6.81729H3.88762C3.82919 6.81729 3.77314 6.792 3.73182 6.74698C3.6905 6.70196 3.66729 6.6409 3.66729 6.57723V4.74627C3.66729 4.6826 3.6905 4.62154 3.73182 4.57652C3.77314 4.5315 3.82919 4.50621 3.88762 4.50621H3.88202ZM7.98998 6.3921C7.82758 6.37505 7.67783 6.28914 7.57304 6.15289C7.46825 6.01665 7.4168 5.84098 7.42981 5.66379C7.41678 5.48637 7.46817 5.31047 7.57292 5.1739C7.67767 5.03733 7.82742 4.95099 7.98998 4.93343H14.6113C14.7738 4.95099 14.9236 5.03733 15.0283 5.1739C15.1331 5.31047 15.1845 5.48637 15.1714 5.66379C15.1844 5.84098 15.133 6.01665 15.0282 6.15289C14.9234 6.28914 14.7737 6.37505 14.6113 6.3921H7.98998ZM3.42454 11.0061C3.39434 10.9635 3.3722 10.9148 3.35941 10.8628C3.34662 10.8108 3.34343 10.7565 3.35003 10.7031C3.35663 10.6498 3.37289 10.5984 3.39786 10.5519C3.42283 10.5054 3.45602 10.4648 3.4955 10.4324C3.57004 10.354 3.66875 10.3086 3.77234 10.3052C3.87593 10.3019 3.97696 10.3407 4.05568 10.4141L4.4478 10.8556L5.42811 9.76515C5.46553 9.72944 5.50933 9.70257 5.55675 9.68621C5.60417 9.66985 5.65419 9.66437 5.70365 9.6701C5.75311 9.67583 5.80095 9.69266 5.84415 9.71952C5.88736 9.74638 5.92499 9.7827 5.95467 9.82618C6.0291 9.90504 6.0738 10.0113 6.08002 10.1242C6.08624 10.2372 6.05352 10.3485 5.98829 10.4365L4.68121 11.8891C4.64367 11.9245 4.59984 11.9511 4.55246 11.9673C4.50507 11.9835 4.45514 11.9889 4.40576 11.9832C4.35638 11.9774 4.3086 11.9607 4.2654 11.934C4.2222 11.9073 4.1845 11.8713 4.15464 11.828L4.12477 11.7894C4.10383 11.774 4.08443 11.7563 4.06688 11.7365L3.42454 11.0061ZM7.98065 11.5534C7.81808 11.5358 7.66833 11.4495 7.56358 11.3129C7.45883 11.1764 7.40745 11.0005 7.42047 10.823C7.40745 10.6456 7.45883 10.4697 7.56358 10.3332C7.66833 10.1966 7.81808 10.1102 7.98065 10.0927H14.6113C14.7738 10.1102 14.9236 10.1966 15.0283 10.3332C15.1331 10.4697 15.1845 10.6456 15.1714 10.823C15.1845 11.0005 15.1331 11.1764 15.0283 11.3129C14.9236 11.4495 14.7738 11.5358 14.6113 11.5534H7.98065Z" fill="#110101"/>
</svg>
