<svg width="20" height="25" viewBox="0 0 20 25" fill="none" xmlns="http://www.w3.org/2000/svg">
<path d="M13.0477 22.4426L17.5148 17.8487H13.0477V22.4426ZM4.69377 9.34652V5.28971H3.32744V4.04053H7.47427V5.28971H6.11001V9.35872L4.69377 9.34652ZM14.7988 9.38924C14.5176 9.39331 14.2373 9.35698 13.9669 9.28141C13.7257 9.20981 13.5097 9.07383 13.343 8.88875C13.1453 8.6524 13.0077 8.37348 12.9417 8.07495C12.8397 7.61736 12.7936 7.14954 12.8044 6.68132C12.7933 6.22474 12.8422 5.76867 12.95 5.3243C13.022 5.02507 13.1644 4.74641 13.3659 4.5105C13.532 4.32172 13.7478 4.18101 13.9898 4.1036C14.2502 4.02772 14.5209 3.99068 14.7926 3.99373C15.0595 3.99096 15.3264 4.00659 15.5911 4.04053C15.7902 4.065 15.9874 4.10169 16.1818 4.15039C16.3153 4.18312 16.446 4.22597 16.5727 4.27857V5.35685C16.4812 5.33854 16.3648 5.3182 16.215 5.29989C16.0653 5.28158 15.9031 5.2653 15.7159 5.25309C15.5288 5.24089 15.3249 5.23478 15.1066 5.23478C14.9662 5.23276 14.8262 5.24988 14.6907 5.28565C14.5769 5.31863 14.4794 5.39094 14.4161 5.4891C14.336 5.624 14.285 5.77358 14.2664 5.92855C14.2308 6.18268 14.2148 6.43908 14.2186 6.69556C14.2159 6.93412 14.2284 7.17262 14.256 7.40967C14.2703 7.56563 14.3148 7.71752 14.387 7.85726C14.4486 7.96221 14.5457 8.04281 14.6615 8.08512C14.8107 8.13469 14.9678 8.15743 15.1253 8.15226C15.4934 8.15226 15.7949 8.15226 16.0258 8.13395C16.2566 8.11564 16.4417 8.1075 16.5769 8.08919V9.15527C16.442 9.20669 16.3028 9.24684 16.161 9.27531C15.9714 9.31257 15.7797 9.33907 15.587 9.35466C15.379 9.37297 15.1087 9.38314 14.8071 9.38314L14.7988 9.38924ZM9.57679 9.4279C9.23794 9.43502 8.90199 9.36539 8.5952 9.22445C8.34122 9.10798 8.12524 8.92487 7.9713 8.69548C7.82536 8.47806 7.74864 8.22316 7.75086 7.96305C7.74688 7.78439 7.78607 7.60734 7.86524 7.44629C7.94497 7.29276 8.05282 7.15484 8.18343 7.03939C8.33183 6.9029 8.49185 6.77903 8.66175 6.66911L9.86586 5.93872C9.96671 5.88336 10.0512 5.80347 10.1113 5.70679C10.147 5.64092 10.1662 5.56771 10.1674 5.49317C10.1669 5.41115 10.1341 5.33247 10.0759 5.27344C10.0368 5.23874 9.99067 5.21247 9.94051 5.19635C9.89035 5.18022 9.83728 5.1746 9.78476 5.17985C9.713 5.1783 9.64185 5.19292 9.57679 5.22258C9.52063 5.25058 9.47375 5.29362 9.44162 5.34668C9.40712 5.40316 9.3898 5.46809 9.3917 5.53386C9.39347 5.64152 9.42433 5.7468 9.48113 5.83903C9.95945 6.70166 11.8831 8.54492 12.636 9.34652H11.2052L9.04856 7.12077C8.9425 7.01091 8.82604 6.87663 8.6971 6.71387C8.56532 6.54733 8.45496 6.36557 8.36852 6.17269C8.27403 5.96608 8.22649 5.74187 8.22918 5.51554C8.22684 5.26225 8.29361 5.01293 8.42259 4.7933C8.55452 4.57605 8.74239 4.39646 8.96745 4.27246C9.21722 4.13641 9.49889 4.06629 9.78476 4.06901C10.0524 4.0624 10.317 4.12485 10.5521 4.25008C10.7592 4.36298 10.9315 4.52807 11.0513 4.72819C11.1699 4.92985 11.2317 5.15875 11.2301 5.39144C11.2314 5.62848 11.1683 5.8616 11.0471 6.0669C10.9156 6.28519 10.7375 6.47323 10.5251 6.61825C10.2111 6.8339 9.41874 7.31405 9.20661 7.5765C9.14197 7.65909 9.10953 7.76152 9.11511 7.8654C9.11247 7.9545 9.13709 8.04235 9.18582 8.11768C9.23696 8.19009 9.30953 8.24547 9.39378 8.27637C9.48929 8.31501 9.592 8.33372 9.69533 8.3313C9.87909 8.33039 10.06 8.28718 10.2236 8.20516C10.4071 8.11904 10.5722 7.9996 10.7102 7.85319C11.0298 7.52433 11.2052 7.08621 11.1989 6.63249H12.3282C12.3295 6.92465 12.2974 7.21604 12.2325 7.50122C12.1724 7.77132 12.0685 8.03027 11.9247 8.26823C11.7818 8.49936 11.5913 8.69889 11.3653 8.85417L11.1573 8.95386L10.9494 9.05558C10.7454 9.18591 10.5204 9.28152 10.2839 9.33838C10.0607 9.39263 9.8317 9.42063 9.60175 9.42179L9.57679 9.4279ZM3.93678 18.3105H7.93595V19.4356H3.93678V18.3105ZM3.93678 15.4622H9.61215V16.5873H3.93678V15.4622ZM3.93678 12.6139H16.0611V13.739H3.93678V12.6017V12.6139ZM20 17.2628C20.0002 17.4217 19.9472 17.5763 19.8492 17.703C19.7512 17.8297 19.6136 17.9216 19.4572 17.9647L12.8793 24.7314C12.8101 24.8152 12.7227 24.8828 12.6234 24.9293C12.5241 24.9758 12.4154 24.9999 12.3053 25H1.33722C1.16153 25.0003 0.987525 24.9666 0.825163 24.901C0.662801 24.8353 0.515279 24.739 0.391052 24.6174C0.266826 24.4959 0.168338 24.3516 0.101233 24.1927C0.0341289 24.0339 -0.00027224 23.8637 1.62234e-06 23.6918V1.30819C-0.00027224 1.13632 0.0341289 0.966088 0.101233 0.80725C0.168338 0.648413 0.266826 0.504093 0.391052 0.382563C0.515279 0.261033 0.662801 0.164683 0.825163 0.0990357C0.987525 0.0333881 1.16153 -0.00026633 1.33722 1.58712e-06H18.6628C19.0173 0.00053966 19.3571 0.138539 19.6077 0.383755C19.8584 0.628971 19.9994 0.961401 20 1.30819V17.2628ZM18.5089 16.3879V1.46078H1.49319V23.5453H11.5545V17.1224C11.5545 16.9276 11.6336 16.7408 11.7744 16.6031C11.9152 16.4653 12.1062 16.3879 12.3053 16.3879H18.5089Z" fill="black"/>
</svg>
