<svg width="25" height="25" viewBox="0 0 25 25" fill="none" xmlns="http://www.w3.org/2000/svg">
<path fill-rule="evenodd" clip-rule="evenodd" d="M0 12.7879H5.05116V22.9146H0V12.7879ZM17.0149 3.72241C17.2956 3.00955 17.6048 2.33336 17.9771 1.76261C18.7278 0.60049 20.5647 -0.797725 21.6877 0.556939C22.6926 1.7672 21.8402 3.09206 20.6441 3.72241H23.3537C23.5633 3.72241 23.7606 3.82097 23.8949 3.97913C24.0352 4.13729 24.1227 4.35275 24.1227 4.58884V6.23461C24.1227 6.4707 24.0352 6.69304 23.8949 6.84432C23.7687 6.98644 23.6019 7.08042 23.4148 7.09646V14.8417C24.8388 14.9861 25.6078 16.8106 24.4055 18.1469C21.5778 20.4643 18.6789 22.3714 15.7129 23.9117C13.5586 25.3879 11.4043 25.3374 9.25199 23.9117L6.07035 22.0642V13.6016H9.44932C9.72598 13.6566 10.0026 13.7345 10.2793 13.8308V7.10104C10.0861 7.08729 9.91314 6.99331 9.78091 6.84891C9.64054 6.69075 9.55307 6.47529 9.55307 6.23919V4.59343C9.55307 4.35733 9.64054 4.13499 9.78091 3.98371C9.92128 3.82555 10.1125 3.72699 10.322 3.72699H13.0805C11.8884 3.09665 11.0361 1.77178 12.0369 0.561524C13.1599 -0.797725 14.9948 0.605075 15.7475 1.7672C16.1198 2.34253 16.429 3.01871 16.7097 3.72699H17.0108L17.0149 3.72241ZM20.5525 16.0588H17.1369C17.7554 16.5172 17.8856 17.4455 17.023 18.1103C16.1035 18.8713 14.889 18.8277 13.644 18.7016C12.7856 18.6535 12.7489 19.9532 13.644 19.9577C13.9553 19.9853 14.293 19.9027 14.588 19.9027C16.1422 19.9004 17.4197 19.5658 18.2029 18.1836L18.5955 17.1499L20.5525 16.0588ZM10.914 14.0852C11.6423 14.4084 12.3685 14.8439 13.0968 15.3345H15.8472V12.1667H10.914V14.0852ZM21.8484 15.3345L22.5014 14.97C22.595 14.9356 22.6885 14.9081 22.7801 14.8852V12.1667H22.776H17.91V15.3345H21.8484ZM19.4662 3.72241C22.2064 2.35399 21.2971 0.0480807 19.5618 1.16207C19.155 1.42337 18.8152 1.9116 18.508 2.39754C18.2192 2.85597 17.9608 3.33732 17.7696 3.72241H19.4662ZM14.2564 3.72241C11.5162 2.35399 12.4255 0.0480807 14.1608 1.16207C14.5676 1.42337 14.9073 1.9116 15.2145 2.39754C15.5034 2.85597 15.7617 3.33732 15.953 3.72241H14.2564ZM10.914 10.2413H15.8472V6.75493H10.914V10.2413ZM17.9059 10.2413H22.7699V6.75493H17.9059V10.2413Z" fill="#110101"/>
</svg>
