<svg width="25" height="27" viewBox="0 0 25 27" fill="none" xmlns="http://www.w3.org/2000/svg">
<path fill-rule="evenodd" clip-rule="evenodd" d="M12.4572 0C17.1186 2.90382 21.33 4.27717 24.9437 3.95294C25.5751 16.4987 20.8606 23.908 12.5055 27C4.43685 24.1057 -0.335658 17.0154 0.0184172 3.7621C4.26088 3.98036 8.42341 3.07937 12.4572 0ZM10.2233 13.2786C10.5064 13.5145 10.7734 13.7685 11.0226 14.0388C11.8038 12.803 12.6369 11.6685 13.5162 10.6252C16.0033 7.67339 14.8762 8.24224 18.3257 8.24224L17.8466 8.76575C16.3735 10.3737 15.8767 11.2114 14.6691 12.9254C13.4615 14.6414 12.3821 16.4123 11.4213 18.2348L11.123 18.8015L10.8483 18.2248C10.3419 17.1556 9.73456 16.175 9.01139 15.2983C8.28768 14.4215 7.65571 13.8501 6.6745 13.1884C7.12406 11.7381 9.26407 12.4804 10.2233 13.2786ZM12.4652 2.08982C16.3311 4.49754 20.0419 5.85139 23.0387 5.58199C23.5623 15.9863 19.4341 22.3454 12.506 24.9097C5.81399 22.5098 1.63804 16.4154 1.9315 5.42436C5.81452 5.62417 9.37298 4.45062 12.4652 2.08982Z" fill="#110101"/>
</svg>
