<svg width="19" height="25" viewBox="0 0 19 25" fill="none" xmlns="http://www.w3.org/2000/svg">
<path d="M16.9126 13.1465L8.55766 13.1465C8.1981 13.1465 7.9066 12.857 7.9066 12.4999C7.9066 12.1426 8.1981 11.8531 8.55766 11.8531L16.9122 11.8531L14.1836 8.77998C13.9465 8.51346 13.9715 8.10635 14.2397 7.87075C14.508 7.63495 14.9178 7.65977 15.1551 7.92629L18.8372 12.0733C19.0575 12.3207 19.0517 12.6895 18.8349 12.9298L15.1549 17.0737C14.9178 17.3404 14.5078 17.3653 14.2395 17.1292C13.9713 16.8937 13.9463 16.4863 14.1834 16.2198L16.9126 13.1465ZM14.6557 20.2697C14.6557 19.9125 14.9501 19.623 15.3132 19.623C15.6765 19.623 15.9708 19.9125 15.9708 20.2697V23.1673C15.9708 23.6708 15.7605 24.1294 15.423 24.4613C15.0852 24.7933 14.6189 25 14.1073 25H1.8638C1.35176 25 0.885247 24.7937 0.547409 24.4617C0.210192 24.13 0 23.6721 0 23.1673L0 1.8329C0 1.32834 0.209571 0.869962 0.546995 0.537928C0.884419 0.206097 1.35052 0 1.8638 0L14.1071 0C14.6199 0 15.0858 0.206707 15.4232 0.538334C15.7611 0.870572 15.9706 1.32956 15.9706 1.8329V4.73026C15.9706 5.08732 15.6763 5.37683 15.313 5.37683C14.9499 5.37683 14.6555 5.08732 14.6555 4.73026V1.8329C14.6555 1.68601 14.5932 1.55112 14.4931 1.45265C14.3934 1.35458 14.2564 1.29335 14.1068 1.29335L1.8638 1.29335C1.7136 1.29335 1.57644 1.35438 1.47693 1.45245C1.377 1.55031 1.31515 1.68519 1.31515 1.8329L1.31515 23.1673C1.31515 23.3146 1.37742 23.4491 1.47714 23.5471C1.57727 23.6456 1.71443 23.7069 1.8638 23.7069H14.1071C14.256 23.7069 14.3928 23.6454 14.4929 23.5469C14.5932 23.4485 14.6557 23.3138 14.6557 23.1673V20.2697Z" fill="#FF0000"/>
</svg>
