<svg width="25" height="25" viewBox="0 0 25 25" fill="none" xmlns="http://www.w3.org/2000/svg">
<path d="M20.9 16.2999C21.3375 15.1298 21.575 13.8771 21.575 12.5005C21.575 11.5094 21.4375 10.5595 21.2 9.6785C20.3875 9.88499 19.5375 9.99512 18.65 9.99512C16.8325 9.99727 15.0411 9.51816 13.4269 8.59818C11.8127 7.6782 10.423 6.34433 9.375 4.709C8.25387 7.69645 6.13891 10.0995 3.4625 11.4268C3.4125 11.7709 3.4125 12.1426 3.4125 12.5005C3.4125 13.8148 3.64756 15.1161 4.10424 16.3304C4.56093 17.5446 5.23031 18.6478 6.07417 19.5771C7.7784 21.454 10.0898 22.5084 12.5 22.5084C13.8125 22.5084 15.075 22.1917 16.2125 21.6273C16.925 23.1278 17.25 23.8712 17.225 23.8712C15.175 24.6283 13.5875 25 12.5 25C9.475 25 6.5875 23.6922 4.4625 21.3383C3.17 19.9192 2.20921 18.1762 1.6625 16.2586H0V9.99512H1.3625C1.7753 7.78226 2.72437 5.73375 4.10899 4.06694C5.49361 2.40013 7.26214 1.17721 9.22691 0.527945C11.1917 -0.121324 13.2794 -0.172723 15.2686 0.379202C17.2577 0.931127 19.0741 2.06579 20.525 3.66278C22.1003 5.39076 23.1748 7.59448 23.6125 9.99512H25V16.2586H24.925L20.475 20.7601L13.85 19.9341V17.6352H19.8875L20.9 16.2999ZM9.0875 12.1839C9.4625 12.1839 9.825 12.3491 10.0875 12.6519C10.3513 12.9448 10.4993 13.3407 10.4993 13.7532C10.4993 14.1658 10.3513 14.5616 10.0875 14.8545C9.825 15.1436 9.4625 15.3088 9.0875 15.3088C8.3 15.3088 7.6625 14.6205 7.6625 13.7532C7.6625 12.886 8.3 12.1839 9.0875 12.1839ZM15.9 12.1839C16.6875 12.1839 17.3125 12.886 17.3125 13.7532C17.3125 14.6205 16.6875 15.3088 15.9 15.3088C15.1125 15.3088 14.475 14.6205 14.475 13.7532C14.475 13.337 14.6251 12.9378 14.8924 12.6435C15.1596 12.3492 15.5221 12.1839 15.9 12.1839Z" fill="#110101"/>
</svg>
