<svg width="30" height="30" viewBox="0 0 30 30" fill="none" xmlns="http://www.w3.org/2000/svg">
<g clip-path="url(#clip0_1465_2406)">
<path d="M7.97373 27.1714H8.02011C8.04528 27.169 8.07062 27.169 8.0958 27.1714H13.8185C13.8685 27.1714 13.918 27.1813 13.9642 27.2005C14.0104 27.2197 14.0524 27.2479 14.0878 27.2834C14.1231 27.3189 14.1512 27.361 14.1703 27.4074C14.1895 27.4538 14.1993 27.5036 14.1993 27.5538V29.625C14.1996 29.6754 14.19 29.7254 14.171 29.7721C14.152 29.8188 14.124 29.8612 14.0886 29.897C14.0532 29.9328 14.0111 29.9611 13.9648 29.9805C13.9184 29.9999 13.8687 30.0099 13.8185 30.0099H7.81259C7.76237 30.0099 7.71265 29.9999 7.66628 29.9805C7.61991 29.9611 7.57782 29.9328 7.54242 29.897C7.50702 29.8612 7.47902 29.8188 7.46002 29.7721C7.44103 29.7254 7.43141 29.6754 7.43173 29.625V27.5538C7.43043 27.5027 7.43932 27.452 7.45787 27.4044C7.47643 27.3569 7.50428 27.3136 7.53977 27.277C7.57527 27.2405 7.6177 27.2114 7.66455 27.1916C7.71141 27.1718 7.76174 27.1616 7.81259 27.1616H7.89316C7.92315 27.1578 7.9535 27.1578 7.98349 27.1616L7.97373 27.1714ZM13.8038 26.262H8.18857C8.13388 26.2621 8.0798 26.2504 8.03006 26.2275C7.98033 26.2047 7.93612 26.1713 7.90048 26.1296C7.6832 25.9139 7.45615 25.6933 7.21933 25.4654L6.48691 24.7619C5.95957 24.2716 5.42246 23.752 4.86582 23.1931C4.30918 22.6343 3.75009 22.0607 3.17392 21.3866C2.6639 20.8356 2.22655 20.221 1.87265 19.558C1.6137 18.9808 1.41331 18.3788 1.27451 17.7613L1.15732 17.3201L1.01083 16.798C0.788667 16.0038 0.571382 15.1974 0.337007 14.4056C0.184037 13.9773 0.0784227 13.5335 0.0220655 13.082C-0.0325072 12.723 -0.00240344 12.3561 0.109956 12.0108C0.140124 11.9243 0.181143 11.8419 0.232026 11.7657C0.286028 11.6877 0.353895 11.6204 0.432222 11.5672C0.499439 11.5239 0.573872 11.4932 0.651948 11.4765C0.726321 11.4642 0.802185 11.4642 0.876558 11.4765C1.02963 11.4929 1.17719 11.5432 1.30869 11.6235C1.44352 11.7043 1.56535 11.8051 1.67001 11.9226C1.70104 11.954 1.72516 11.9916 1.74082 12.0329L3.74277 16.8127V16.8323C3.75553 16.8476 3.76697 16.864 3.77695 16.8813C3.83233 16.979 3.89604 17.0717 3.96738 17.1583C4.03815 17.2452 4.11483 17.3271 4.19687 17.4034L8.17148 21.2028L8.19834 21.2346C8.22316 21.2572 8.25517 21.2703 8.28867 21.2714C8.32073 21.2744 8.35279 21.2657 8.379 21.2469L8.40341 21.2248C8.42313 21.2003 8.43504 21.1704 8.43759 21.139C8.43976 21.1077 8.43114 21.0765 8.41318 21.0508L8.379 21.0116C7.25107 19.6904 5.95224 17.9991 4.7706 16.7906C4.65255 16.6807 4.54767 16.5573 4.4581 16.423C4.36991 16.2891 4.30395 16.1417 4.26279 15.9866C4.19853 15.7698 4.20885 15.5375 4.29209 15.3273C4.35176 15.1868 4.44582 15.0637 4.56552 14.9694C4.67681 14.8841 4.80374 14.8216 4.93906 14.7856C5.21029 14.7166 5.4965 14.7381 5.75449 14.8469C5.94927 14.9309 6.13164 15.0414 6.29648 15.1753C6.47417 15.323 6.63765 15.4871 6.78476 15.6655C7.20957 16.1043 7.67832 16.5382 8.11533 16.9671C8.40341 17.2417 8.73056 17.5897 9.09189 17.9623C9.90976 18.8325 10.8644 19.8448 11.6261 20.264C11.7028 20.3043 11.777 20.3494 11.8482 20.3988C11.9239 20.4478 11.9923 20.4968 12.0582 20.5483C12.1241 20.5998 12.19 20.6512 12.2657 20.7125C12.2657 20.7125 12.4513 20.8719 12.4586 20.8719C12.7412 21.1058 13.0004 21.3668 13.2325 21.6513C13.4216 21.8871 13.5747 22.1498 13.6866 22.4308V22.4504C13.7937 22.7323 13.8706 23.0248 13.9161 23.323C13.9723 23.6392 14.0138 23.9971 14.0602 24.4065C14.0772 24.5462 14.0943 24.7129 14.1114 24.8967C14.1285 25.0805 14.1432 25.2472 14.1505 25.3869L14.1773 25.8576C14.1796 25.9077 14.172 25.9577 14.1549 26.0049C14.1379 26.052 14.1117 26.0953 14.0778 26.1322C14.044 26.1691 14.0033 26.1989 13.9579 26.2199C13.9125 26.241 13.8635 26.2528 13.8136 26.2546L13.8038 26.262Z" fill="#1A1A1A"/>
<path d="M22.0093 27.1714H22.0264C22.0556 27.1678 22.0851 27.1678 22.1143 27.1714H22.1973C22.2983 27.1714 22.3952 27.2117 22.4666 27.2834C22.538 27.3551 22.5781 27.4523 22.5781 27.5538V29.625C22.5785 29.6754 22.5688 29.7254 22.5498 29.7721C22.5308 29.8188 22.5028 29.8612 22.4674 29.897C22.432 29.9327 22.39 29.9611 22.3436 29.9805C22.2972 29.9999 22.2475 30.0098 22.1973 30.0098H16.1816C16.1314 30.0098 16.0817 29.9999 16.0353 29.9805C15.989 29.9611 15.9469 29.9327 15.9115 29.897C15.8761 29.8612 15.8481 29.8188 15.8291 29.7721C15.8101 29.7254 15.8005 29.6754 15.8008 29.625V27.5538C15.8008 27.4523 15.8409 27.3551 15.9123 27.2834C15.9838 27.2117 16.0806 27.1714 16.1816 27.1714H21.9043C21.9295 27.169 21.9548 27.169 21.98 27.1714H22.0093ZM21.8066 26.2644H16.1768C16.0762 26.2594 15.9816 26.2145 15.9139 26.1396C15.8462 26.0647 15.8108 25.9659 15.8154 25.8649L15.8423 25.3967C15.8423 25.2545 15.8643 25.0903 15.8814 24.9065C15.8984 24.7226 15.9155 24.5511 15.9326 24.4162C15.979 24.0069 16.0205 23.649 16.0767 23.3328C16.1262 23.0267 16.208 22.7268 16.3208 22.4381C16.4328 22.1571 16.5858 21.8944 16.7749 21.6587C17.007 21.3742 17.2662 21.1131 17.5488 20.8792L17.7417 20.7199C17.8052 20.6659 17.8735 20.612 17.9492 20.5556C18.0249 20.4993 18.0835 20.4551 18.1592 20.4061C18.2305 20.3567 18.3047 20.3117 18.3814 20.2713C19.1431 19.8521 20.0903 18.8398 20.9155 17.9696C21.2647 17.5971 21.5918 17.249 21.8921 16.9745C22.3291 16.5455 22.7979 16.1116 23.2227 15.6729C23.3686 15.4934 23.5322 15.3292 23.7109 15.1826C23.8758 15.0488 24.0582 14.9383 24.2529 14.8542C24.5109 14.7454 24.7971 14.7239 25.0684 14.7929C25.2037 14.829 25.3306 14.8914 25.4419 14.9767C25.5616 15.071 25.6557 15.1941 25.7153 15.3346C25.7986 15.5449 25.8089 15.7771 25.7446 15.994C25.703 16.1489 25.6371 16.2962 25.5493 16.4303C25.4603 16.5702 25.3546 16.6986 25.2344 16.8127C24.0283 18.129 22.8296 19.8252 21.604 21.0557C21.58 21.0844 21.5677 21.1212 21.5698 21.1586C21.5718 21.1962 21.5884 21.2314 21.6162 21.2567C21.6431 21.2796 21.6773 21.2922 21.7127 21.2922C21.748 21.2922 21.7822 21.2796 21.8091 21.2567L21.8359 21.2248L25.8032 17.4034C25.8853 17.3271 25.962 17.2452 26.0327 17.1583C26.0996 17.0723 26.16 16.9813 26.2134 16.8862C26.2234 16.8689 26.2348 16.8525 26.2476 16.8372V16.8176L28.2471 12.0378C28.2645 11.9968 28.2894 11.9594 28.3203 11.9275C28.425 11.81 28.5468 11.7092 28.6816 11.6284C28.813 11.5477 28.9606 11.4975 29.1138 11.4814C29.1881 11.4691 29.264 11.4691 29.3384 11.4814C29.4165 11.4981 29.4909 11.5288 29.5581 11.5721C29.6364 11.6253 29.7043 11.6926 29.7583 11.7706C29.8092 11.8468 29.8502 11.9291 29.8804 12.0157C29.992 12.3594 30.0221 12.7245 29.9683 13.082C29.911 13.5378 29.8038 13.9858 29.6484 14.4179L28.9746 16.798L28.8306 17.3201L28.7134 17.7613C28.5746 18.3788 28.3742 18.9808 28.1152 19.558C27.7612 20.2215 27.323 20.8362 26.8115 21.3866C26.2402 22.0484 25.6763 22.6416 25.1245 23.1956C24.5728 23.7495 24.0405 24.2667 23.5132 24.757L22.7808 25.4408L22.7637 25.4604C22.5195 25.6884 22.2998 25.909 22.0825 26.1247C22.0469 26.1664 22.0027 26.1998 21.9529 26.2226C21.9032 26.2455 21.8491 26.2572 21.7944 26.2571L21.8066 26.2644Z" fill="#1A1A1A"/>
<path fill-rule="evenodd" clip-rule="evenodd" d="M23.2982 2.69628C23.7181 11.2435 20.5736 16.293 14.9974 18.3985C9.62634 16.4253 6.43787 11.5965 6.67224 2.56637C9.50183 2.71589 12.2875 2.10309 14.973 0.00488281C17.3583 1.51971 20.4003 2.95856 23.2982 2.69628ZM22.3802 3.41693C22.7538 11.0156 19.9584 15.5086 15.0023 17.3887C10.2172 15.6336 7.38758 11.3391 7.59754 3.30907C10.2549 3.50768 12.8891 2.69375 14.9755 1.02948C17.0897 2.36782 19.8046 3.64734 22.3802 3.41202V3.41693Z" fill="#1A1A1A"/>
<path fill-rule="evenodd" clip-rule="evenodd" d="M22.3803 3.41211C22.7538 11.0108 19.9584 15.5038 15.0024 17.3838C10.2172 15.6288 7.38763 11.3343 7.59759 3.30426C10.2549 3.50286 12.8892 2.68893 14.9755 1.02466C17.0898 2.36791 19.8046 3.64742 22.3803 3.41211Z" fill="white"/>
<path fill-rule="evenodd" clip-rule="evenodd" d="M20.9594 4.52724C21.2622 10.6552 19.0063 14.2878 15.0024 15.8027C11.1377 14.3834 8.85494 10.915 9.03316 4.43165C11.1785 4.59364 13.3058 3.93714 14.9902 2.59326C16.6992 3.68404 18.8964 4.71598 20.9692 4.52724H20.9594Z" fill="#110101"/>
<path d="M11.5601 8.55711L12.7808 8.54241H12.8003L12.8931 8.56447H12.915C13.0396 8.63555 13.1592 8.71399 13.2788 8.79488C13.3984 8.87577 13.5083 8.96646 13.6157 9.05715C13.7231 9.14785 13.7695 9.19197 13.8599 9.26796L14.0112 9.41993C14.209 9.10373 14.4165 8.79488 14.6265 8.49828C14.8364 8.20169 15.1147 7.85362 15.3589 7.55458C15.603 7.25554 15.9058 6.91482 16.1939 6.61578C16.4819 6.31673 16.7725 6.03485 17.0728 5.76522L17.0972 5.74806L17.2144 5.70394C17.224 5.70155 17.234 5.70155 17.2437 5.70394H18.5669C18.5883 5.70394 18.6088 5.71246 18.6239 5.72763C18.639 5.7428 18.6475 5.76338 18.6475 5.78483C18.647 5.80611 18.6383 5.82637 18.623 5.84121L18.3594 6.13535C17.9492 6.59127 17.561 7.05454 17.1899 7.52272C16.8189 7.99089 16.4575 8.47868 16.1255 8.96646C15.7935 9.45425 15.4736 9.94693 15.1733 10.4372C14.873 10.9274 14.5874 11.4544 14.3189 11.9741L14.1528 12.2976C14.143 12.3157 14.1266 12.3293 14.1071 12.3357C14.0876 12.342 14.0664 12.3407 14.0479 12.3319C14.0322 12.3236 14.0195 12.3108 14.0112 12.2952L13.8599 11.9643C13.7233 11.6664 13.5684 11.3775 13.396 11.099C13.2298 10.8276 13.0463 10.5672 12.8467 10.3195C12.6475 10.071 12.4305 9.83754 12.1973 9.62093C11.9602 9.39992 11.7072 9.19674 11.4404 9.01303C11.4273 9.00354 11.4174 8.99019 11.4122 8.97482C11.4069 8.95945 11.4066 8.94283 11.4111 8.92724L11.5088 8.60123C11.5133 8.5842 11.5235 8.56926 11.5378 8.55898C11.552 8.54869 11.5694 8.5437 11.5869 8.54486L11.5601 8.55711Z" fill="white"/>
</g>
<defs>
<clipPath id="clip0_1465_2406">
<rect width="30" height="30" fill="white"/>
</clipPath>
</defs>
</svg>
