<svg width="30" height="30" viewBox="0 0 30 30" fill="none" xmlns="http://www.w3.org/2000/svg">
<path fill-rule="evenodd" clip-rule="evenodd" d="M21.4502 5.19246V12.7552H19.8166V11.5872H10.181V12.7552H8.54737V5.19246H7.9833V4.02977H9.35807L10.1248 1.45072C10.3519 0.689685 10.728 0 11.4654 0H18.8154C19.5529 0 19.9777 0.676473 20.156 1.45072L20.7494 4.02977H22.0118V5.19246H21.4502ZM16.2124 25.7139H21.5625C21.9923 25.2515 22.4636 24.7705 22.9422 24.2817C23.9458 23.2538 24.9933 22.1809 26.0702 20.8385C27.3009 19.3033 27.4328 18.7721 27.8064 17.2686C27.8772 16.9858 27.9553 16.6687 28.0579 16.275L28.6976 13.8413L28.705 13.8148C29.0468 12.7314 29.0737 12.0153 28.9321 11.6031C28.8881 11.4763 28.832 11.3917 28.766 11.3468C28.7147 11.3098 28.6464 11.2966 28.5756 11.3045C28.4095 11.323 28.2215 11.4366 28.0506 11.6401L26.1508 16.5366C26.1337 16.5815 26.1093 16.6238 26.0824 16.6608C25.9701 16.8801 25.8187 17.0942 25.6233 17.2976L22.2536 21.3644C22.0704 21.5864 21.7554 21.6049 21.5527 21.4067C21.3476 21.2085 21.3305 20.8676 21.5137 20.6483L24.8859 16.5815C24.9005 16.563 24.9152 16.5445 24.9323 16.5287C25.2815 16.1693 25.3914 15.7809 25.3303 15.4981C25.3108 15.4109 25.2766 15.3369 25.2278 15.2867C25.1814 15.2391 25.1203 15.2101 25.0446 15.2021C24.7443 15.1678 24.3023 15.4083 23.7626 16.0979C23.748 16.1164 23.7309 16.1349 23.7138 16.1534L22.4074 17.4007L22.4001 17.4086C20.9862 18.8567 20.3782 19.2002 19.2696 19.8265C19.0376 19.9586 18.7837 20.1013 18.4687 20.2863C18.3441 20.3603 18.222 20.4501 18.1024 20.5479C17.9754 20.6536 17.8533 20.7619 17.7386 20.8676C17.1525 21.4014 16.8448 21.8348 16.669 22.313C16.4859 22.8098 16.4199 23.415 16.3296 24.2447C16.293 24.5803 16.2661 24.9106 16.2441 25.2409C16.227 25.3995 16.2197 25.558 16.2124 25.7139ZM13.7852 25.7139H8.4326C8.00283 25.2515 7.53155 24.7705 7.05295 24.2817C6.04934 23.2538 5.00178 22.1809 3.92492 20.8385C2.69422 19.3033 2.56235 18.7721 2.18875 17.2686C2.11793 16.9858 2.0398 16.6687 1.93724 16.275L1.29747 13.8413L1.29014 13.8148C0.948281 12.7314 0.92142 12.0153 1.06305 11.6031C1.107 11.4763 1.16317 11.3917 1.2291 11.3468C1.28037 11.3098 1.34875 11.2966 1.41956 11.3045C1.58561 11.323 1.77363 11.4366 1.94456 11.6401L3.84433 16.5366C3.86143 16.5815 3.88585 16.6238 3.91271 16.6608C4.02503 16.8801 4.17643 17.0942 4.37178 17.2976L7.74155 21.3644C7.92469 21.5864 8.23969 21.6049 8.44237 21.4067C8.64748 21.2085 8.66458 20.8676 8.48144 20.6483L5.1141 16.5762C5.09945 16.5577 5.0848 16.5392 5.06771 16.5234C4.71852 16.164 4.60864 15.7756 4.66968 15.4928C4.68922 15.4056 4.72341 15.3316 4.77224 15.2814C4.81864 15.2339 4.87969 15.2048 4.95538 15.1969C5.25573 15.1625 5.70015 15.403 6.23736 16.0927C6.23736 16.0927 6.28376 16.1429 6.28864 16.1482L7.59504 17.3954L7.60237 17.4033C9.01621 18.8514 9.62423 19.1949 10.7328 19.8212C10.9648 19.9533 11.2188 20.096 11.5338 20.281C11.6583 20.355 11.7804 20.4448 11.9001 20.5426C12.027 20.6483 12.1491 20.7566 12.2639 20.8623C12.8499 21.3961 13.1576 21.8295 13.3334 22.3078C13.5166 22.8045 13.5825 23.4097 13.6728 24.2394C13.7095 24.575 13.7363 24.9053 13.7583 25.2356C13.7705 25.3995 13.7778 25.558 13.7852 25.7139ZM7.18725 25.8989C7.11155 25.994 7.06516 26.1182 7.06516 26.253V29.4609C7.06516 29.7595 7.28981 30 7.5633 30H14.298C14.5739 30 14.7961 29.7569 14.7961 29.4609V26.2239C14.7961 25.8804 14.7766 25.5104 14.7546 25.1669C14.7326 24.8155 14.7033 24.4667 14.6667 24.1205C14.569 23.2141 14.4958 22.5509 14.2613 21.914C14.0196 21.2613 13.6313 20.6985 12.911 20.0405C12.7791 19.919 12.6448 19.7974 12.5032 19.6838C12.3542 19.5622 12.1931 19.446 12.0124 19.3376C11.7194 19.1659 11.4459 19.01 11.1968 18.8673C10.1712 18.2859 9.60958 17.9688 8.28853 16.6159C8.27876 16.6053 8.26655 16.5947 8.25679 16.5868L6.98213 15.3686C6.20318 14.383 5.44131 14.0553 4.85771 14.124H4.85527C4.56957 14.1557 4.32538 14.2773 4.13003 14.4623L2.84317 11.1433H2.84073C2.82119 11.0957 2.79677 11.0508 2.76503 11.0085C2.40852 10.5461 1.95677 10.2766 1.52456 10.229C1.2291 10.1973 0.943397 10.266 0.694327 10.4404C0.457466 10.6069 0.262117 10.8659 0.140023 11.2226C-0.0748609 11.8436 -0.0699771 12.8081 0.350024 14.1425L0.984909 16.5604C1.0777 16.9092 1.15828 17.2448 1.23398 17.5407C1.6491 19.2187 1.79561 19.8133 3.18015 21.5362C4.27654 22.9023 5.34852 24.0016 6.37899 25.0533C6.64515 25.3387 6.91376 25.6135 7.18725 25.8989ZM8.13958 26.792C8.20551 26.8079 8.27388 26.8079 8.34225 26.792H13.7974V28.9219H8.06144V26.792H8.13958ZM22.8103 25.8989C22.886 25.994 22.9324 26.1182 22.9324 26.253V29.4609C22.9324 29.7595 22.7102 30 22.4343 30H15.702C15.4261 30 15.2039 29.7569 15.2039 29.4609V26.2239C15.2039 26.2054 15.2039 26.1843 15.2063 26.1658C15.2137 25.8196 15.2259 25.484 15.2454 25.1669C15.2674 24.8155 15.2967 24.4667 15.3333 24.1205C15.431 23.2141 15.5042 22.5509 15.7387 21.914C15.9804 21.2613 16.3687 20.6985 17.089 20.0405C17.2209 19.919 17.3552 19.7974 17.4968 19.6838C17.6458 19.5622 17.8069 19.446 17.9876 19.3376C18.2806 19.1659 18.5541 19.01 18.8032 18.8673C19.8288 18.2859 20.3904 17.9688 21.7115 16.6159C21.7212 16.6053 21.7334 16.5947 21.7432 16.5868L23.0179 15.3686C23.7968 14.383 24.5587 14.0553 25.1423 14.124H25.1447C25.4304 14.1557 25.6746 14.2773 25.87 14.4623L27.1568 11.1433H27.1593C27.1788 11.0957 27.2032 11.0508 27.235 11.0085C27.5915 10.5461 28.0432 10.2766 28.4754 10.229C28.7709 10.1973 29.0566 10.266 29.3057 10.4404C29.5425 10.6069 29.7379 10.8659 29.86 11.2226C30.0749 11.8436 30.07 12.8081 29.65 14.1425L29.0151 16.5604C28.9223 16.9092 28.8417 17.2448 28.766 17.5407C28.3509 19.2187 28.2044 19.8133 26.8199 21.5362C25.7235 22.9023 24.6515 24.0016 23.621 25.0533C23.3524 25.3387 23.0838 25.6135 22.8103 25.8989ZM21.858 26.792C21.792 26.8079 21.7237 26.8079 21.6553 26.792H16.2002V28.9219H21.9361V26.792H21.858ZM12.552 9.25394H17.3772V10.4853H12.552V9.25394ZM9.09679 6.38422C10.3275 6.4265 11.0796 6.98406 11.2725 8.1441H9.09679V6.38422ZM20.7469 6.38422C19.5187 6.4265 18.7666 6.98406 18.5712 8.1441H20.7469V6.38422ZM9.94656 4.02977H20.051L19.6188 1.86823C19.4991 1.27631 19.1597 0.763675 18.5981 0.763675H11.6095C11.0478 0.763675 10.7597 1.28953 10.5888 1.86823L9.94656 4.02977Z" fill="#110101"/>
</svg>
