<svg width="22" height="25" viewBox="0 0 22 25" fill="none" xmlns="http://www.w3.org/2000/svg">
<path d="M12.3702 18.0185C12.4304 18.2871 12.8907 18.5576 13.607 18.7834C14.7231 19.0991 15.8838 19.2507 17.0485 19.233C18.2133 19.2511 19.374 19.0994 20.49 18.7834C21.2601 18.5414 21.7354 18.2464 21.7354 17.9697V15.9841C21.4142 16.1833 21.0653 16.3394 20.6987 16.448C19.5135 16.7867 18.28 16.95 17.0421 16.9322C15.8041 16.9501 14.5706 16.7868 13.3854 16.448C13.0232 16.3408 12.678 16.1875 12.3594 15.9923V18.0267L12.3702 18.0185ZM4.29769 11.7486C4.13773 11.7412 3.9873 11.6745 3.87899 11.5629C3.77069 11.4513 3.71323 11.3039 3.71908 11.1525C3.71533 11.0774 3.72737 11.0024 3.75451 10.9318C3.78164 10.8612 3.82333 10.7964 3.87716 10.7411C3.93098 10.6859 3.99587 10.6413 4.06806 10.6099C4.14024 10.5786 4.2183 10.5611 4.29769 10.5585H9.22336C9.38255 10.5664 9.53211 10.633 9.6399 10.7441C9.74768 10.8552 9.8051 11.0018 9.79982 11.1525C9.80386 11.2275 9.79211 11.3026 9.76524 11.3733C9.73837 11.444 9.69692 11.509 9.64329 11.5645C9.58967 11.6199 9.52493 11.6647 9.45285 11.6963C9.38076 11.7279 9.30276 11.7457 9.22336 11.7486H4.29769ZM18.4617 3.61105H20.5287C20.7222 3.60963 20.914 3.6449 21.0928 3.71478C21.2717 3.78467 21.4338 3.88775 21.5698 4.01792C21.7063 4.1469 21.8146 4.30008 21.8884 4.46869C21.9622 4.63731 22.0001 4.81803 22 5.00053V11.6468H20.7352V5.01274C20.7352 4.95878 20.7126 4.90704 20.6722 4.86888C20.6319 4.83073 20.5772 4.8093 20.5201 4.8093H18.4595V11.6468H17.2034V1.39561C17.2037 1.34253 17.1821 1.29142 17.1432 1.2532C17.1027 1.21636 17.0487 1.19592 16.9926 1.19624H1.46274C1.40736 1.19645 1.35419 1.21685 1.31432 1.2532C1.27537 1.29142 1.25376 1.34253 1.25409 1.39561V17.9799C1.25219 18.007 1.25645 18.0343 1.26659 18.0598C1.27673 18.0853 1.29251 18.1084 1.31287 18.1277C1.33324 18.147 1.35772 18.1619 1.38468 18.1715C1.41164 18.1811 1.44045 18.1851 1.46919 18.1833H9.67506V19.3815H4.79456V21.6051C4.79478 21.6575 4.81635 21.7078 4.85478 21.7455C4.89519 21.7823 4.94922 21.8028 5.00535 21.8025H9.67506V22.9885H5.0118C4.8184 22.9895 4.62673 22.954 4.44799 22.8841C4.26925 22.8143 4.10701 22.7114 3.97074 22.5816C3.83417 22.4523 3.72588 22.2987 3.65207 22.1298C3.57825 21.9608 3.54036 21.7798 3.54055 21.597V19.3754H1.47134C1.27794 19.3764 1.08627 19.3409 0.907529 19.2711C0.728785 19.2012 0.566545 19.0984 0.43028 18.9686C0.154656 18.7072 -6.04794e-05 18.3531 9.02188e-05 17.9839V1.39561C-0.0020673 1.2123 0.0344917 1.03042 0.107624 0.860639C0.180756 0.690862 0.288989 0.536601 0.425978 0.406903C0.563183 0.277155 0.726203 0.174397 0.905626 0.104562C1.08505 0.0347269 1.27732 -0.000801761 1.47134 2.71546e-05H16.9883C17.1814 -0.00112313 17.3728 0.0342824 17.5512 0.104159C17.7296 0.174036 17.8915 0.276971 18.0272 0.406903C18.1642 0.535919 18.2729 0.689392 18.3467 0.858418C18.4205 1.02744 18.4582 1.20866 18.4574 1.39154V3.61919L18.4617 3.61105ZM4.29769 5.36061C4.1385 5.35271 3.98894 5.28605 3.88115 5.17497C3.77336 5.0639 3.71594 4.91726 3.72123 4.76658C3.71719 4.69153 3.72894 4.61646 3.75581 4.54574C3.78268 4.47502 3.82413 4.41005 3.87775 4.3546C3.93138 4.29915 3.99611 4.25432 4.0682 4.22272C4.14029 4.19112 4.21829 4.17337 4.29769 4.1705H14.1469C14.3063 4.17893 14.4558 4.24602 14.5636 4.35742C14.6713 4.46882 14.7286 4.61568 14.7233 4.76658C14.7274 4.84152 14.7156 4.91648 14.6887 4.98709C14.6618 5.05769 14.6203 5.12253 14.5667 5.17782C14.513 5.23311 14.4483 5.27774 14.3762 5.30913C14.3041 5.34051 14.2262 5.35801 14.1469 5.36061H4.29769ZM4.29769 8.55459C4.1385 8.54668 3.98894 8.48003 3.88115 8.36895C3.77336 8.25787 3.71594 8.11124 3.72123 7.96055C3.71719 7.8855 3.72894 7.81044 3.75581 7.73972C3.78268 7.66899 3.82413 7.60402 3.87775 7.54857C3.93138 7.49312 3.99611 7.4483 4.0682 7.41669C4.14029 7.38509 4.21829 7.36734 4.29769 7.36448H14.1469C14.3065 7.37239 14.4563 7.43932 14.5642 7.55084C14.672 7.66236 14.7292 7.80952 14.7233 7.96055C14.7274 8.0355 14.7156 8.11046 14.6887 8.18106C14.6618 8.25167 14.6203 8.3165 14.5667 8.37179C14.513 8.42708 14.4483 8.47172 14.3762 8.5031C14.3041 8.53448 14.2262 8.55199 14.1469 8.55459H4.29769ZM13.6113 15.7359C14.7275 16.0508 15.8882 16.2018 17.0528 16.1835C18.2175 16.2021 19.3782 16.0511 20.4943 15.7359C21.2644 15.4939 21.7397 15.1989 21.7397 14.9222C21.7397 14.6455 21.2902 14.3302 20.5115 14.0861C19.3954 13.7709 18.2347 13.6199 17.07 13.6385C15.9054 13.6202 14.7447 13.7712 13.6285 14.0861C11.9959 14.6028 11.9508 15.207 13.6285 15.7359H13.6113ZM21.7634 21.8879C21.4424 22.0863 21.0944 22.2423 20.7288 22.3517C19.5432 22.6887 18.31 22.8513 17.0722 22.8339C15.8344 22.8514 14.6011 22.6888 13.4156 22.3517C13.0535 22.2431 12.7085 22.0891 12.3896 21.894V23.786C12.4498 24.0545 12.9101 24.3251 13.6264 24.5509C14.7426 24.8658 15.9032 25.0167 17.0679 24.9985C18.2325 25.0171 19.3933 24.8661 20.5094 24.5509C20.9206 24.4473 21.3016 24.2567 21.6236 23.9935C21.7828 23.8307 21.7569 23.7229 21.7569 23.5276V21.8879H21.7634ZM12.3745 20.9317C12.4347 21.2003 12.895 21.4709 13.6113 21.6967C14.7275 22.0116 15.8882 22.1625 17.0528 22.1442C18.2175 22.1628 19.3782 22.0119 20.4943 21.6967C21.2644 21.4525 21.7397 21.1596 21.7397 20.8707V19.0398C21.418 19.2382 21.0692 19.3942 20.703 19.5036C19.5174 19.8406 18.2842 20.0032 17.0464 19.9858C15.8086 20.0032 14.5753 19.8406 13.3897 19.5036C13.0277 19.3949 12.6827 19.241 12.3637 19.0459V20.9378L12.3745 20.9317Z" fill="#110101"/>
</svg>
