<svg width="25" height="22" viewBox="0 0 25 22" fill="none" xmlns="http://www.w3.org/2000/svg">
<path d="M17.5677 6.40986C17.4151 6.4891 17.2605 6.5769 17.1079 6.66899C16.6501 6.95166 16.1985 7.29645 15.7367 7.69262L14.752 6.50623C15.0918 6.1743 15.46 5.87235 15.8506 5.60466C16.1619 5.39051 16.4874 5.19992 16.8231 5.03716C16.9573 4.96649 17.0916 4.90011 17.23 4.838C16.581 3.62805 15.6472 2.76075 14.5892 2.22537C13.5313 1.69214 12.3473 1.48655 11.1937 1.60433C10.0483 1.71998 8.93548 2.15898 8.0159 2.91065C6.95188 3.77796 6.1442 5.07571 5.83293 6.79534L5.73527 7.33285L5.22666 7.42708C4.72822 7.51916 4.28267 7.64551 3.89205 7.80612C3.51365 7.96031 3.17593 8.15091 2.88093 8.37576C2.64493 8.55565 2.44149 8.75695 2.26856 8.97538C1.73349 9.64996 1.48529 10.4959 1.49139 11.3525C1.4975 12.2219 1.76605 13.0999 2.26245 13.8216C2.44759 14.0893 2.66121 14.3356 2.90534 14.5497C3.15355 14.766 3.43227 14.9459 3.74557 15.0808C4.05685 15.2157 4.40067 15.3121 4.78111 15.3678H7.03529V16.9439H4.7567L4.66311 16.9353C4.11991 16.8625 3.62758 16.7276 3.17999 16.5327C2.71817 16.3314 2.30925 16.0723 1.94915 15.7554C1.60736 15.4556 1.30829 15.1151 1.05399 14.7446C0.374476 13.7595 0.0082734 12.556 0.000135564 11.3567C-0.00800227 10.1446 0.350062 8.93898 1.12316 7.96245C1.3734 7.64551 1.66839 7.35427 2.00611 7.09729C2.39876 6.79748 2.84838 6.54478 3.35699 6.33705C3.70692 6.19357 4.08126 6.07365 4.47594 5.97728C4.92353 4.10561 5.87769 2.66438 7.10447 1.6643C8.2519 0.72846 9.6333 0.182377 11.0554 0.0388965C12.4714 -0.104584 13.928 0.148113 15.2362 0.809837C16.6624 1.53152 17.9074 2.73291 18.7151 4.42255C19.0406 4.36901 19.3661 4.34117 19.6896 4.34546C21.0568 4.35616 22.3751 4.87012 23.4127 6.04795C23.6304 6.29422 23.8359 6.57262 24.0291 6.88314C24.6802 7.93676 25.0138 9.34372 24.9996 10.7207C24.9853 12.072 24.6395 13.4169 23.9315 14.4062C23.4697 15.0508 22.8776 15.5776 22.1676 15.9952C21.484 16.3978 20.6865 16.7041 19.7913 16.9225L19.6245 16.9439H18.1597V15.3678H19.5411C20.2593 15.1857 20.894 14.9395 21.4332 14.6225C21.9682 14.3077 22.4056 13.9244 22.7332 13.464C23.2418 12.7509 23.492 11.7422 23.5022 10.7079C23.5144 9.62212 23.2621 8.53209 22.7718 7.73974C22.6315 7.5106 22.4768 7.30501 22.3141 7.12084C21.5796 6.2878 20.6479 5.92374 19.6795 5.91732C18.9816 5.91089 18.2553 6.08864 17.5677 6.40986ZM8.9131 10.3545C11.4786 10.3545 10.8458 10.3545 12.98 10.3545H13.1102L13.2038 10.453L16.5627 14.0015C16.6115 14.0679 16.644 14.145 16.6562 14.2371C16.6562 16.8176 16.6562 18.8177 16.6562 21.3982H16.6542C16.6542 21.5653 16.5911 21.7152 16.4874 21.8223H16.4854C16.3816 21.9293 16.2412 21.9979 16.0825 21.9979V22H8.9131V21.9979C8.75441 21.9979 8.612 21.9293 8.51028 21.8223C8.40855 21.713 8.34345 21.5653 8.34345 21.3982V10.9563C8.34345 10.7892 8.40855 10.6393 8.51028 10.5323C8.612 10.4252 8.75441 10.3567 8.9131 10.3567V10.3545ZM15.7387 14.4491H13.2241C13.0329 14.4491 12.8599 14.3655 12.7338 14.2306C12.6077 14.0957 12.5304 13.9094 12.5304 13.706V11.3225H9.26099V21.0363H15.7387C15.7387 18.5458 15.7387 16.9375 15.7387 14.4491Z" fill="#110101"/>
</svg>
