<svg width="25" height="22" viewBox="0 0 25 22" fill="none" xmlns="http://www.w3.org/2000/svg">
<path fill-rule="evenodd" clip-rule="evenodd" d="M18.4382 7.2349H22.182V6.6291C21.596 4.29925 20.1066 4.31445 18.2652 4.33399C17.9621 4.33833 17.6874 4.34051 17.6711 4.34051H3.67665C3.35517 4.34051 3.09473 4.06257 3.09473 3.7195C3.09473 3.37643 3.35517 3.0985 3.67665 3.0985H17.6711C18.0842 3.0985 18.1716 3.0985 18.2551 3.09633C19.8299 3.07896 21.2053 3.06376 22.182 4.04737V3.76293C22.182 3.0681 21.9154 2.43841 21.4861 1.98026C21.0568 1.52211 20.4647 1.23766 19.8157 1.23766H3.52812C2.87702 1.23766 2.28697 1.52211 1.85765 1.98026C1.42834 2.43841 1.1618 3.07027 1.1618 3.76293V18.2327C1.1618 18.9276 1.42834 19.5572 1.85765 20.0154C2.28697 20.4735 2.87906 20.758 3.52812 20.758H19.8136C20.4647 20.758 21.0548 20.4735 21.4841 20.0154C21.9134 19.5572 22.1799 18.9254 22.1799 18.2327V16.1786H18.4362C17.3069 16.1786 16.2794 15.6857 15.5367 14.8932C14.7941 14.1007 14.3322 13.0041 14.3322 11.7991V11.6101C14.3322 10.4051 14.7941 9.30853 15.5367 8.51599C16.2814 7.72779 17.3069 7.2349 18.4382 7.2349ZM23.3438 7.25878C23.765 7.3261 24.1414 7.53889 24.4283 7.84722C24.7823 8.22503 25 8.74615 25 9.31938V14.0095C25 14.6088 24.7721 15.1516 24.4038 15.5446C24.121 15.8464 23.7527 16.0614 23.3438 16.1439V18.2349C23.3438 19.2706 22.947 20.213 22.3081 20.8948C21.6692 21.5766 20.7862 22 19.8157 22H3.52812C2.55758 22 1.67453 21.5766 1.03565 20.8948C0.396761 20.2152 0 19.2728 0 18.2371V3.7651C0 2.72937 0.396761 1.78701 1.03565 1.10521C1.67453 0.423411 2.55758 0 3.52812 0H19.8136C20.7842 0 21.6672 0.423411 22.3061 1.10521C22.945 1.78701 23.3417 2.72937 23.3417 3.7651V7.25878H23.3438ZM17.9336 10.012C18.7576 10.012 19.425 10.7242 19.425 11.6036C19.425 12.483 18.7576 13.1952 17.9336 13.1952C17.1095 13.1952 16.4422 12.483 16.4422 11.6036C16.4422 10.7242 17.1095 10.012 17.9336 10.012Z" fill="#110101"/>
</svg>
